<mxfile host="app.diagrams.net" agent="Mozilla/5.0 (Windows NT 10.0; Win64; x64) AppleWebKit/537.36 (KHTML, like Gecko) Chrome/134.0.0.0 Safari/537.36" version="26.1.0">
  <diagram name="Page-1" id="K1AVWrMDdjOOsMsDJV4J">
    <mxGraphModel dx="7436" dy="3160" grid="1" gridSize="10" guides="1" tooltips="1" connect="1" arrows="1" fold="1" page="1" pageScale="1" pageWidth="850" pageHeight="1100" math="0" shadow="0">
      <root>
        <mxCell id="0" />
        <mxCell id="1" parent="0" />
        <mxCell id="G-mqxwKbMEY0-rQwgw5R-1" value="" style="shape=image;verticalLabelPosition=bottom;labelBackgroundColor=default;verticalAlign=top;aspect=fixed;imageAspect=0;image=data:image/png,iVBORw0KGgoAAAANSUhEUgAABBcAAAKuCAYAAAD6qfS2AAAAAXNSR0IArs4c6QAAAARnQU1BAACxjwv8YQUAAAAJcEhZcwAADsMAAA7DAcdvqGQAAPUVSURBVHhe7N0FgCTF2YDhmp7dPeNwdwvu7nI4BAjubsHdCQR3hxAgBHcLToDg7u7ubqfr/7113fv3DWuzZ7N775MMO92ju9fVVfXVV9WFAcst0lxTUxMam5pDbUMS1vnzuuGQQw8PkiRJkiRJbbn4vFPCI/+9O4TG5pAkSTHubA6FsPhiixlYkCRJkiRJHdptn8PCAgstHhqbm0NSVVUMhUIxNNY3hj323id9iiRJkiRJUvu22WXvUBj+M6mp6RWSQiGsufY6YdZZZx/xqCRJkiRJUgdmmHnWsOJqa4WkWBwxLWK5FVaOPyVJkiRJkjpr8WVWDElSLIb6hoYw51zzpLslSZIkSZI6Z/Y55wlJU2NjqKuvC5NONlm6W5IkSZIkqXMmmXSykDQ2NZG+EAoFlmCQJEmSJEnqPOIJCXeqqqvjDkmSJEmSpHIl9XX1obGhId2UJEmSJEkqTzJk2NAwbGhtuilJkiRJklSepL6uLjQ1NaabkiRJkiRJ5UlYxzGpqko3JUmSJEmSypMkSSHU1LigoyRJkiRJ6pqkb9++oV+fPummJEmSJElSeZJ+ffuGYlUx3ZQkSZIkSSpPUkySUFdbl25KkiRJkiSVJ2lsbAxDBg9KNyVJkiRJksqT1NfXh7q6+nRTkiRJkiSpPEljQ2N6V5IkSZIkqXxJY2NDqK72UpSSJEmSJKlrksamptCrV690U5IkSZIkqTzJcKFYlaSbkiRJkiRJ5UkKSTEUi8V0U5IkSZIkqTxJCIXh/zdzQZIkSZIkdU3S2NhE+kK6KUmSJEmSVJ6kkBRCUqxKNyVJkiRJksoTF3QMhUK6KUmSJEmSVJ6E/zc1NqabkiRJkiRJ5UlCc2NoNLggSZIkSZK6KBk2rDY0NjSkm5IkSZIkaWxj0P/SSy8N999/f7qnYy+99FI477zzQkMF9OmTurq6UHDNBUmSJEmSxpnrr78+nHjiiWGvvfbqVICBwMIOO+wQzjrrrHDxxRene8edpFhVHP4fL0UpSZIkSdK4sv7664cVV1wxZiHsv//+4eGHH04f+aMssPD777+HpZdeOmy11VbpI+NOUlPTK9TX16ebkiRJkiRpbOvfv3+44IILYoBh6NChYc8992w1wFAaWLjooovCxBNPnD467iS9evUKrLsgSZIkSZLGnY4CDJUaWEBSVV0VqqqK6aYkSZIkSRpX2gowVHJgAUlt7bBQXVOTbvZMb7zxRph77rnjH39ceeihh8LMM88cf0qSJEmS1JbSAMNOO+0UNt5444oNLCAZMmRoxS7o+OKLL8Y/4Kyzzho75gsssEA45ZRTwqBBg9JnSJIkSZLU82QBhiWWWCI0NzfH2+KLL16RgQUk1dXVoaF+3F8Ts9R9990XNt100xiZOfbYY8M//vGPsOGGG4Z//etfMeDwzTffpM8ctwYPHhw222yzeOO+JEmSJEmjw/vvvx/efffddCuEN998M7z88svpVmVJisVi4FZJBg4cGK/TOf/884cbb7wxbLPNNmHttdcOf//738N1110XPvroo7hfkiRJkqSeKL/GwoILLhgWWWSRdq8iMa4l1VXVoZhUVnCBP9j3338fZp999jDJJJOke0dg7YQVVlghfPLJJ/F5GDZsWAxGMG2C6RNLLrlkuPvuu2PaSHs++OCDmB3Ba5h6sddee4UffvghfXSE/HO4bbDBBuGtt96Kjx144IFh3nnnDc8991y8cb+cdR0aGxvj9xwwYECb34H343f+3//+Fx/LpohwQJV+V77DKqusEh/nb3HppZfG12RZFfxNl1lmmfi981pbk4KpJ0xByf6m2ftxzdW8jj4zQ6ZJ/vvzN+XfUJIkSZI0stLFG6+88sp46+gyleNSvFpEpa250KdPnzDllFOGRx55JLzzzjvp3hGYd3LZZZeFc889Nz6Pzi7TJs4555y4yAXTJwg+7L333jHLoS2vvfZa2GijjWLWBq894YQT4j/gVlttFX766aeRnkNHm+dwq62tDVtssUV87JhjjgmPPvpoWHjhheON+9tuu218bUcIfNAR53syh4bvffjhh8cgwgEHHDBSx5zgyf777x8mmGCCOOdmu+22i9NGzjjjjJbOPt9nl112idsnnXRSOPLII8Ott94a7rnnnvh4Ocgc2W233cI111wT9tlnn/jd1lhjjfi+l19+efqszn/mV199Ff9mpPScfPLJ8e/I35S/LfskSZIkSSO0dVWIji5TOa4lhUKh4qZF8EcjYECndZ111okj7a+88kpLRzqPqy/cfPPN4fTTTw/77rtvnD5BB5afV1xxRfj555/TZ/4/Ou50hueaa65wySWXhL/85S9hyy23jAELRtP/+9//xs9ifYdJJ500/uQ53K666qowxRRThKuvvjp+T+7X1NTEG/f79euXfkr7fvnllxg82X777Vu+Lx31ww47LDzzzDPh7bffTp85IhCxxx57tDzvb3/7W+zs87xff/215bv27t07RrP4XcgcuP7662M2QbmYx/Ppp5+GCy+8MOy8887xM48//viw/PLLh7vuuiv89ttvnf5MnnfeeeeFpqam8O9//zs+h78jAYuqqqp2A0CSJEmSND7p6HKTlRxgSJqHd/qSQuVdLYI5JXTyWbzx9ttvj9MR5phjjnDIIYe0TAeg001wYZZZZonp/hk6rcsuu2z48ssv46h5qY8//ji8/vrrsZPLP06GaRik7PMP+vXXX4dnn302rLTSSmHaaadNnxHC5JNPHs4888z4vZjW0FUELVg3guwHAjyZ6aabLnbI6cBnyNDg98mex+8333zzxefRaSeAwnfm4Jtpppnic8CUEn6ncvE+Tz31VDxgMwQRCJ78+OOPMXujs5/J85988sk49WP66adP94YwzTTTxGkkZKa4EKYkSZKk8V1HgYVMaYBh1113Dffff3/66LiTEFhoHN5JrUR0QE877bSYOn/LLbeENddcM9x0001hvfXWiytmDhkyJHzxxRdxXQQWtyAwkN2OOOKI9F3+6Lvvvov/CDwn/xreg/cCnXtS96eaaqq4nbfQQguFpZZaKnbyRwXTHciuIHCQfQcyBTojSf4/IMTvQyYEmRj5QMWoYI0EsijmmWeelu/GlIdMZz+TQBCBCH7P7H24zTnnnDFzQ5IkSZIUAldypI/ZXmAhkw8w9O3bNw4Ej2tJsZiE+ob6dLMy8QdebLHFYio9QQamApCSny3YyCKBZ599dnw8fyMdf4YZZojPac1f//rXP7yGG1enGNPIOiAL49RTT42RJjIFnn/++ZgVMa59/vnn8bKfZHdwUPO9uDE9oqvWX3/9Vv/WrCXRq1ev9FmSJEmSNH5ievmdd97ZYWAhkwUYmLq+6KKLpnvHnWR4D52FF9LNysAflGgN6fSluKoBf3QyFpiWwPQCRs5ZD4DOb/622mqrtfqPMtFEE8WABZkRpa/hRmYC0x94HtkLpUhTYdS+o6tRtIcMCRZvZMFEFmhkOgSLWPKZ5eL3IFLFJTpH5TtlHnjggRjAIfBBJIzvxY3pGZnOfia/DwtR8nOttdb6w996dGSASJIkSVJPwFTyzgQWMgQY8tPUx6UYV+hdYSPHrKFA5/Y///lPHOHPI82eRRcJKrB4ImsisIYCVyjId3JJ63/xxRdb7fiyJgA3roaQv5wjz3388cfjZ/P+BDGYu8K6ARmCCmQ2HH300aO05kK2XgK3DJ/flasncPCxRgXf/bPPPkv3jviuH374YboV4t+LIAZrUeTXOWDaAlM0MvX19fG75L8bV5AgoJPp7GcyrYQraXDJTaay5LFIJ99FkiRJktS9FRecd46/V1VXh4023SrdNe4xSk6q/MUXX9yyMAULMzKi/ve//z2utcDVHlhokSgNl0QkUEDHlrUUyHjgco50ZlddddWYacAVJZZccsmw+OKLxxH4ySabLL6Gy0dypQcCFqSUMC2B7AjWGphxxhnjc8gwoGPO+/H5PJdLV/L5rH3A5xHIYDFDOuVTTz11/M55BEDIyGC9CKZxMC+Gjjn76NyzhgHvySKPyJ7H+z733HNhk002GWn9B/YzbWHzzTeP0SqCBvyO/L3423G1iaOOOir+5DGmJfA7sFAlaycQVCHAce2114ZTTjkl3l9uueXi34erh7C2BWsi8Ps9/fTTcQoHvz+fVc5n8rfm78hnkq7DPCICP/xdueoFfzNSePJrSEiSJEmSupeEznBjboS6EjDNgYUNyVwgLYTLUnIpRtZVYAFBOqqMmoNO7qWXXhrXLeCqEtnzNtpoo7guA53X1pCiTweaDvehhx4a9t577ziKzqUR//znP8fn8Bl8Fmn9++23X7zRic5/Pin9u+++e5wiQDYD79kZ2ffmkpIsdnj44YfHqRjs48oM7733XvrMzuH78Fq+DwtVnnjiifFvwKU88/g7sQIpvwN/KwIHLJqZvyIGC1vS+ScwwN+eIA+v4fcnEEJwAJ39TJ53xx13xCtccElLPveJJ54I55xzTlz3otIuhSpJkiRJKk9hwz+v3NzY2Bz+c68r9/c0ZHjssssuMSvh3//+dwykjGnj4jMlSZIkSeNW0tzcFBoaK/NSlOo8poYwxYFMlAxrJLzxxhtxmseY6OSPi8+UJEmSJFWehLnuFXaxCHUBiygec8wx8eoTrG3A9A6mQID1GsaEcfGZkiRJkqTKU9j0L6s0D6utD3fc+1i6S90R2QMvvPBCOPnkk+NVGAgacRlJ1oHg6htjwrj4TEmSJElS5SlsvtHqzbW19eG2ux5Od0mSJEmSJHVewpUZilWu1i9JkiRJkromaWioD0khSTclSZIkSZLKk1RX14RC4oqOkiRJkiSpa5LGpubQ0NiYbkqSJEmSJJUnTotoamxONyVJkiRJksqT1NXVh9raYemmJEmSJElSeZKmpqYw/P+SJEmSJEldkhS4UoTrOUqSJEmSpC5KmljMsck1FyRJkiRJUtckjQ2NoZgk6aYkSZIkSVJ5kupiMdRUVaebkiRJkiRJ5UkmmGCC9K4kSZIkSVL5kppevULBaRGSJEmSJKmLksbG+lBVVUw3JUmSJEmSypPU19eHxOCCJEmSJEnqoqSxqTk0cjlKSZIkSZKkLkgamupDXUN9uilJkiRJklSewlqrLdWcVNWEu+99LO748ssv409JkiRJkqS2TD/99Om9EAprrLJEc1KsDvf+98m4Y+DAgfGnJEmSJElSW/r375/eCyHhShFVRRd0lCRJkiRJXZP07tU71PSqSTclSZIkSZLKk9TU1ISkkKSbkiRJkiRJ5UmamhpDY71Xi5AkSZIkSV2T1A6tDc3NTemmJEmSJElSeZLGxoZQXe2aC5IkSZIkqWuShvr60NjQkG5KkiRJkiSVJxk0eHAY+Pvv6aYkSZIkSVJ5kr4T9Au9+/ZONyVJkiRJksqT9OvXN/Tp0zfdlCRJkiRJKk9SXV0dkmKSbkqSJEmSJJUnKRSS0NTopSglSZIkSVLXJM1NTaHBq0VIkiRJkqQuShoa6kNTs5kLkiRJkiSpa5LGhqbA1AhJkiRJkqSuSIpVxeH/KaabkiRJkiRJ5UmaQxLqGxrTTUmSJEmSpPIkdfUNocGrRUiSJEmSpC5KQpIEQwuSJEmSJKmrkpAUw6AhtemmJEmSJElSeZKBg4eGQYMGp5uSJEmSJEnlSX786ZcweKiZC5IkSZIkqWuSX34fGOobvVqEJEmSJEnqmoTFHOvqDS5IkiRJkqSuSfr07hsaGrxehCRJkiRJ6pqkKSShT98+6aYkSZIkSVJ5kobGxtBcKKSbkiRJkiRJ5Unq6xtCc7PBBUmSJEmS1DVJIRRC0cwFSZIkSZLURUnfvn1DdVV1uilJkiRJklSepHbosFBXV59uSpIkSZIklScu6FhfX5duVo7m5ubw9ddfh99//z289957cXt0Gzx4cLjmmmvCr7/+GoYNGxbOO++88Mwzz6SPSpIkSZKkzkh6VVfTk083K8dLL70Udtlll9jh5zZ06ND0kdHnsssuC1deeWWor68PH3/8cbj66qvDPffcM0YCGZIkSZIk9VRJdVUxJOlGJVl00UVjVsGRRx4Zzj333FBTU5M+MvrMNtts6b0QpphiijDxxBOHlVZaKRRc4FKSJEmSpE5LQnOoyM4032mSSSaJUxYOPPDA8OSTT6aPtK6hoSE0NjamW3/EYz///HP46aef4nMx00wzhQknnDDeT5IkVFVVxZskSZIkSeq8JCmEUFUsppuVhXUQbrvttvDoo4+me1r3zTffhJ133jl89tln6Z4Qnn766fDKK6/E+++++25Yd911w4orrhgzEzbbbLPw7bffhsknnzz0798/PqdPnz5h6qmnjvclSZIkSVLnJTXV1aGmevRPORhVgwYNCvvss0946qmnwrTTTpvu/X8//PBDDBDgl19+CR988EH47rvv4vaQIUPCpZdeGu677764fsIjjzwSF2+8/PLLw/XXXx9fS8CBrIWpppoqvkaSJEmSJHVNDC5U4goD9957b1huueVikGCFFVZI945ARsOxxx4bPvroo7g9xxxzhFVXXTUGGEAWAms2PP/883FaBQtDktnwr3/9K159ol+/fjGokM9W6Nu3b6tBDEmSJEmS1L4YXKgqVt6SjkxxOP3008NCCy0U/vOf/4Qrrrgi3q677rqw2267xYyG//73v+GWW26JV5MgEyFboJH1GjbeeONQLBbDWWedFe666664//XXX4+vJaDw/vvvh3/+85/xqhSSJEmSJKnrCsstv2xzaArhiXTBxIEDB8af4xoLMBJAYL2FxRdfPGYdsCDjjz/+GKaccsqw3XbbxUADmA6x5ZZbhr333jv07t077gPBg3/84x+huro6NDU1hXXWWSdMNtlk8XVsE4RYf/31w+GHHx4XcjzmmGPCyiuvHNdlkCRJkiRJbcvWMERh5ZVWaA6FYnj44YfjjkoJLoyqzz//PJxwwgkxYDDddNOleyVJkiRJ0ujwh+BCQ0NTePyJJ+KOSg8u/Pbbb+Gtt94KtbW1ce2FNddcMzz77LPhtddeiws0coUIMhyY7sCCkDvssENFXmpTkiRJkqTuLB9cSJqbmkNdfV26Wfm4xCRrL3zxxRdxsUauBvHpp5+Gn376KU57mGeeeeL9Qw89NGy77bYGFiRJkiRJGsMKyy27VPOQwUPDS6+8Gnf0lGkRkiRJkiRpzBkpc6G+vi7UN9Snm5IkSZIkSeVJGhoah/9w6oAkSZIkSeqaJITmUF1Tk25KkiRJkiSVJ6mqrgp9+/RONyVJkiRJksqT1FTXhJpevdJNSZIkSZKk8iSst5AUhv+QJEmSJEnqgqSutjYMGzYs3ZQkSZIkSSpPMnTYsDB48OB0U5IkSZIkqTxJr+peoamxKd2UJEmSJEkqT5IUC6G6uirdlCRJkiRJKk/S3NwcqqqK6aYkSZIkSVJ5kgL/KRpckCRJkiRJXZMUq4qhWPRSlJIkSZIkqWuSquqqEekLkiRJkiRJXZCE5uZQW1ubbkqSJEmSJJUnaWpsDLW1w9JNSZIkSZKk8iTBKRGSJEmSJGkUJKGpIdR4KUpJkiRJktRFSSE0By8WIUmSJEmSuippbmoKzU3N6aYkSZIkSVJ5ktDUFELz8JskSZIkSVIXJMWqJCSJ8yIkSZIkSVLXJFVV1aGqqirdlCRJkiRJKk9SLIRQ5YqOkiRJkiSpi5LGpuZQSDckSZIkSZLKlTQ1Ng7/YXhBkiRJkiR1TRIKhVAsFtNNSZIkSZKk8iQxsFBwzQVJkiRJktQ1SVVVTSgkTouQJEmSJEldk9TW1YVBQ4amm5IkSZIkSeVJkmJV6N2rd7opSZIkSZJUnqSuvj7UNzSlm5IkSZIkSeUpLLnI/M3VNb3CE8+8EHd8+eWX8ackSZIkSVJbpp9++vReCPEyES7oKEmSJEmSuipmLtT07hMef+q5uGPgwIHxpyRJkiRJUlv69++f3gshaWwKoaHeNRckSZIkSVLXJM2hOTQ01qebkiRJkiRJ5UkaG+pDfZ3BBUmSJEmS1DVJc/Pw/7ieoyRJkiRJ6qKkd6+aUFNTk25KkiRJkiSVJxlu+H9MXZAkSZIkSV2TNDc1hYKxBUmSJEmS1EUkLoSqYjHdlCRJkiRJKk/Su0+f0KdP73RTkiRJkiSpPElNdU0omrkgSZIkSZK6KGloaAh19fXppiRJkiRJUnmSYcOGhrra2nRTkiRJkiSpPEl9Q0NoampONyVJkiRJksqThGBgQZIkSZIkdV1SSJLQbIBBkiRJkiR1UdKnT99QLFalm5IkSZIkSeWJl6JMkiTdlCRJkiRJKk9SXV0Vamqq001JkiRJkqTyJKHZ9RYkSZIkSVLXJY2NTaG+viHdlCRJkiRJKk/SUF9vcEGSJEmSJHVZ0tDQEJqbG9NNSZIkSZKk8iRNTU2hWCimm5IkSZIkSeVJCiEJNTW90k1JkiRJkqTyJIUkCcWimQuSJEmSJKlrktDUHBobXXNBkiRJkiR1TdLU3BRCoZBuSpIkSZIklSdpLoTAoo6SJEmSJEldkRSTYmhwWoQkSZIkVbwjjzwyzD///PH26KOPpnulcS9pbGoKdbV16aYkSZIkqRJddtll4euvvw7PPfdcePjhh8MFF1wQ3n777fRRadxKhg4dFmrrDC5IkiRJUiX7+OOPw3bbbRf69u0bpphiirDWWmuFZ555Jn1UGreS+vr69K4kSZIkqVKdeOKJYaWVVkq3RiDgIFWCpFhVFXr17pVudh/Nzc3hxhtvDIsvvnjYYYcdwpAhQ9JH/h8pQz/88EO8z9wk0ogkjXlc3vb9998Pw4YNS/eU58knnwyXXHJJulWZ3nnnnXDmmWd2+XeUOjJo0KBw0EEHhY033jh8/vnn6d7yffvtt+G4444Lv/76a7qn+6Eu5+/w5ptvhrPOOiu89tpr6SMa35x33nnhmmuuCb/88kvYddddw3vvvZc+Ikka15Ipp5k29OrdO92sLAQQTjrppLDbbrv9oQH/ySefhKuuuip2QC6//PKYGpRHRsYZZ5wRKyCpJ8ov5pPdCLZVwry7L7/8Muy3337hrbfeSvd0Hp12yvW6664bOxSrrbbaH37PtgKKY9Ncc80VJplkktjQ5VylykNZoEzkj51VVlkl3HLLLTEA1hUsnDU2jr+GhoZw7bXXxu+8yy67hPPPP79LgSy+5/HHHx+WXnrpMPHEE//hvLHggguGvffeOwbju4L35+8xthYUS5IkbLHFFuHss88OH374YbpXo2J0HxNj2iabbBLuvPPOsMIKK4S55547zDbbbOkj0piRneeyMpKd7/IDl/n6prW2GO0Z3oOfvD57r9KBT7Z53/bwuIs4qlIl/SaYMBQKhXSzslCxMYeIVJ/SyDSNrD59+oTpp58+3TOy6urqOLqx//77p3uknme99dYLb7zxRsvthRdeCPPMM0/66Lgz00wzhXvvvTcsuuii6Z7OoVwTWNh2223DNNNMk+4NsWOV/z1bCyiObZw3N9xww3huev3119O9qjR0qMly47jh34lsE46xRx55JH1GZaqqqoqBdebVrrHGGuH0008PvbswEHD33XeHKaecMqy88srpnpHPG88++2yYdtppY2N1XAfsOotzA1kM/DsShNGo607HBP/+N910U/yutPEoK9KYRHuDdgfHHPUJ0xJKgwcEg//617/G5/Bzs802awkcEFDYcsstwyKLLBK3mdLA81iM8YYbbjBQoB4l+f1Xpg1U5qjb448/Hv70pz+FNddcM9xzzz0to4MUQgotjfoBAwbEwkshZ6TzkEMOCUsttVTczkcU8959992wzjrrhPvvvz++548//hhTT4kgErE/55xzWhosQ4cODaecckrcz+OHHnpoTFUF73/CCSeE7bffPj5G5cx7g/fl/Ymslz4mjUlZhP3oo4+OZYEy0N5xTHmi0uNY5nEi7lSeWXnjuN1ggw3i6zieH3vssZbHXnzxxXhsZ48xnQFZCnNW+X722Wdhq622is8rff88Aok//fRTp4ISrZX59spye+UVfHdGtbPHSL8Gr7/yyitbRiTyfzs6rosttlgMpKjyERBaaKGF4r8lxyTyx+YyyywTrr/++pasBo4ZMnDWXnvteJ8bI7oc9yuuuGKr9QzlKZ/ZwHN5Pe/PsUewgOdn5TTfqGQ/74f2jrv2jvM8PuOhhx4Kq6++epsdMIL066+/fhg4cGAYPHjwHz53xx13bBnBLi1zBC74O/A78nfhu/Mcyj7nAJT+nnx3/qa8N+cMzlPZ36ucenPhhReO/3ajMl1ErcsfE/x78e9z8803p4+OmJZw1FFHxX+vts6baOux0mPkwQcfjMEvHi99jEw2ymV2/OTLCDhWOb6z50tjGgM4m2+++UgLKHL+4jyZZdHQlmHKDmVgn332aalDOE+yAGOG+7zXRx99lO5pHa+lHGU3MnekSpXU1Q4Jw4ZVXmSaEUyCC6REr7rqquGll14K33//fXyMiB+dkznnnDNG/Xbaaae4n8dnnHHGcMcdd4Q55pgj7iv1zTfftBRwRoNoRJ522mmhX79+cdSXAktF98QTT8TnX3HFFeGDDz6I34WTBHNX+ezMU089FY444oj4Wgo80zCocJm2wWjrueeeG1599dVYsdKxyRqH0phGo/u6666LKcQdHcdMX6DCpJwxN5spR5Qnnve3v/0tbLPNNuGVV16JnRjKC+nIX331VewY7LHHHvEYP/zww8PJJ58cvvvuu/RdR6itrQ2nnnpq7DDwvEsvvTT861//anW0n+/BqBSd9s7Il/lZZ5213bKMtsorDVi+O+nj/J677757OPbYY2Og47bbbgu33nprvDGiR4P76quvTt8xxM4q3/v3339P96hSZf/W/PszMvvzzz+HAw44INYp/LtTTggu5LMaCGJz/B522GFxtIrzOgElgmwdZQlx/HDe33rrreOxT6eactgZ7R13lKFevXrF3+Ouu+6K9SDHeinK72+//RZmmWWWdM8fEXh84IEHQk1NTexUZp9LZ5L353elI0njGfkyR+CfvwPP4e/C36c9/P3JNqirq4u/E9+d80gmyyyh88rfi0EA/vbZZ+dNPvnkYbLJJov/nhq98sfEpJNOGjvvlAnO5bRhnn/++Rg0IPDT1nmzvXNqHvUUWaacl+ebb7507wi0Ay+88MJ47LeGeohgA8eVNDaVLp5IZsPBBx8cb7QtCDTQNyGYTNkh86x0AUYQFCNzob2pPRzjvB+XnSTbgRt9CqlSJVQeTI2oNDToaHQssMACsdDR6Hn55ZfTR1vHFAki3lNNNVWrozQ0/o855pjYYCGwwChWsViMlRo3Uk5pNFHBZScOGoU0miaaaKJ4W2655UY6qfB5BDJ4LYEQvjMVMw0/Kjyi8GwzYsX78HtIowsd6CySzY1KKMOxS4ebSq+j45hUPToKlBs6ChynNAJpvNFZzx6jPP79738PE044YSxnpAFy3FOOGEmkHJQ2HnlsggkmiO9F4IHvSceFNQtKMXI1++yz/2GqFsHA7HdkRJVyhXyZp8y1V5bRVnmlE8VzmZfO78koGp1O1m6h00Z6Ou/H32LTTTeNjeusw8Pfk0YwDW9VHhYxJNONY4fjlwYfmQr8+3McUQfyOP/uHBsE48hEyTIBmPrCa/v37x+3y0EHi2OZy4RRDnh/guId4Zhs77gj+JaN2k833XSxHJJBUIoGKWWZ8pqXP28sscQSsSNPR5DvmH3uzDPPHMsJfxsyGrIMgo7q2fYQzCGoQLCS34myw6h0hnMC5wayMfguyy67bKy3+fxSlHfWPCGAolHX1jHBuZs6gXM3HSGOOc51BNbaOm9yv73HMgQqCL6xhgKDSKXIuuE5rQXxKJ8XX3xxWH755eNxJI0pnHMZlMyyY6g3OBdzbOdlZYLOP1MoPv300xhwZYDmggsuaHk970c2EGVtwIAB8b1bCzyA5zIglF12UuoOkqaGxjDBhJV1YqZTzjQIGho0YKjcqJj+85//xEZ8W7JgQVtoNGUdggyvYWSHxhQFncZnPsWZSpSARJZOzohKZ9DgozP39NNPx8qPBippT+19P6lcRK+zSDa3LIsH+UZcV49jGpL5jj7vSeeecsmxTCSdUS3ek84azy/Fa/hsRorpuJFOzahna2WBBiMLtpWiLGW/I5V31tjMl/mOynJ7aATwPbPflU4VDQc6ZXwnRq15T24EOujQ0AEEI3ucs0zLrUz5NRe4cU6moca/N/+2/FvnywqZM6xCz+g6WjseO4v35/PpCJeD46m9446GKWm2e+21V5xCxOhuvpxmeI/W9peeN8jYYJ2U7HPp+GcITtCozTJz8mWuXE1NTTGY01ZnkPfl3EBQgd+Z80V7GUEEQEpHENU1bR0TmGGGGWKmCFfoIEuLABnreLR13uTft73HQHCMzyQYzbS70uOUY52g2Z577tlqp4ppEpzv//KXv6R7pDGHthOBAM5LBFwJCHSUucbxy5QHAsOUGQJ44Hgm+MDxTzZbW4EFqbtKilXDG05dXDV7TCHtkorjvvvui6OhFGbSselUlC7sWA4qMK4gQZAhy4IgKs5Jgqg5qXtUqhR40MgizZrUS0ZbeIwTQWfQmeN1RCuZj8rcK9LNS0d1pTFtVI5jRk3pcGS4z0gwxzcpzEz74cZ9UrOzxmgeU4/oqNE5IoWajt5NN90Uv0spGqN0QLqivbLcETop/J2y35XvTAeTn3wnVqbn/bIb5yb+nmA0loZxfh6lugf+bQlY82+fYeocHequdqDzCCqQ/ZJ//87geGrruCOYxXfeaKONYuo65Y4Mifyc+AzvkS+/Hck+N58pQDCDDn65AZLW8N4sttzWIAF1MwMLpAnz+3KuaG9Umg4s2VkaswgMcF5ljQ2yCZgSwbHS1nmTfe09BuoK3o/zKMHufBnhNf/+979jkKm1DhxtRDpnBJLzgTBpTCAYQIAgfy7uKCDAQCbTebLshtbOUwzIdBQc5bPJNOXcKHUXSTEphtphlbUOAB1/ChQBhqwgE1ggfZJRp65iBGrqqaeOHX0ucUkjkoYfHaVsjjepn1nggcqQDguP0SAihTo/f7s9vA+jLvzkc0dHQ1XqilE5jpmiQEeDoADvw8gVKeVUiFSevB9llcd4Do2+UnROCCwQUOB57ZUF0miZPlFOhyjTXlnuCNkYTMkgKMF3pCLnPMHvTsXOdBNG2niMzhxrWXAfjJ7R+B4dnS+NXXRcCHzRiaVzQ2eVNRdYtLC9f0+OiyyzgUYj5YkyRuCNDlOG0SqOf/ZxvLz//vstAXICGGS40VnjsymX//vf/1oea+u443Opvwg80ElvrzyRLZQFBzqDz6XBS7o5fwu+F2swsJ8gf3soB6CzyGeyfgvfm+B6tpAfZZMRQNZc4W/Ia/J1On9DPotsRd6D37mt705Zp7NKna4xj04S64WQnZZ1+Ns6b7IIZHuPZag7WIeBY+Wqq65qOe/zGRx/LDRcmtEAAtMcj9nK+9K4RFuoNHORY5updCz6mE1tKF1XYd555431QTbNsxTnfjBIwjSMbFHTTOnnEsygnSWNa0kyvGHS3MWRwjGBxhLTH2jcZSODoPFOZ52G2KiO/jNNgUXYSCWl8O+7775xZJcsCRYWIgWQhg+NS1Z5JbWax7hPY5BGTz7K3hpSsqlIiaxzn7RuUlzzv5M0NozKcUzDnQW5WISNMnPggQfGhRu5tjiNR9IEyQgiNZvOPOWpdFSSjgILP951113xPZiv/ec//zlOjyhFZUvQj05auZh/3VZZ7gi/D78XizHxHelc8Xvz+xNMYc0JvjeP0eFjRC3r1NEw4HuXzmtX5SMLgOOERhvHDJ0Z6hmm+rSF6Xp0eFi3h4YhU96ylG8agTQqM7w/nSdG4jl2OKaykVbeY5dddolZB3w2C96Rap5p67ijPDN3/csvv4xlkIVSabTyPUpx/DLyzwLDncX7kBXBPHi+F41jyhTluDX8voxqU8aZ/sSUKVLZmWfM9yZwk10ymt+Z35P3ovxTz+fPF6xNwXdm/Qh+LxrLBBsIJJTiHMGNsqsxj38X2jKc67PjtL3zZnuP5TENiWAZi5XSvgP/5tRTlJ/WsEAp61i1FniQxiaCy7SPuIIOnf08MkQ59y+55JIx0Fua7UC2I1PbsjWBCOwSLOB8zhSKnXfeOW7zPDJECfTmP4MrCJHVDV7DwpFkt5V+D2lsK6y35krNjU3N4e7/joiItbUqr6TxF/NfqTzJQKBDM6YQ7GBqA5Vsawt8VRpGWuno0ZliRFYqxTHNdADQ6ONYIXAwto5vsiYYGaZcZd9jXGIUm2y+rGNI0ISMDi6VW05nkUY0jWk6ppXwe/V0HMcMkLAgNmtgSeMrOvwEiRm4ICBN+4igGZllTo/U+Cq/6HVc0DEpdH3BKkk9HxUnWQFUnm3Nlx4d6CQwIsUlIvPps5WIFF5SEBmVY0RPKkXaP5dqJfWfTjWXgiXjgPnoYwvZRUxXYvHVSkDG4EUXXRTPI6S/s4Ajo+HlBBbIbmIUj1E/AwtjHuc6psTxd/dcp/EdWQVkI7C4KdN9mLrNFVbYlhRC0tjUFBobKmtBR0mVhdR/UvBIYyYFfEwinZZ0QDoPlYxpIMz53nHHHU3PVauYksD0OEblCUJxrXOmDrCWydjCtAWmKLCeQ1emG41ujPSxZgsZUOuvv37M4GhtSkdbGEEnyElggQVnNeZx+WEybpjS4tROje+4KhfB2iuvvDJOZ+DGZX8JMEgKobD6Cks1h5CE/z72VNzhtAhJkiRJktSRkaZF1Nc3hPqG+nRTkiRJkiSpPElDY1Ooqy/vGtySJEmSJEmZhMtQNjVWzqUoJUmSJElS95IErhTh1SIkSZIkSVIXJUkxCcWqYropSZIkSZJUniRJiiEpGlyQJEmSJEldkxSKBSIM6aYkSZIkSVJ5kpAU+K8kSZIkSVKXJMViMTSnG5IkSZIkSeVKmkNzKAz/nyRJkiRJUlckw4YOC43NTemmJEmSJElSeZLa2rrQUN+QbkqSJEmSJJUnLuVocEGSJEmSJHVVUlNTHQouuSBJkiRJkroo6d+/f6ip6ZVuSpIkSZIklScZOmRoaGxqTDclSZIkSZLKk4TQHKqKVemmJEmSJElSeZKa6prQq1d1uilJkiRJGhOOPPLIMP/888fbDjvsEIYMGZI+InV/SVUxMXNBkiRJksagRx99NHz99dfhueeeC2+88UaYdtppw4knnpg+KnV/SaFQGHE9yvEMUUKihRRyaXzy9ttvh4033jj88MMP6R5JXfXjjz+G7bffPuy4447xfmc988wz4YADDghDhw4NZ5xxRrj55pvTRySVo7m5Odxwww3hvvvui2268WUkuLGxMZx11lnhtddeS/eoO/joo4/CcsstF/r27Ru3t9pqqzBw4MA2j1nabIsvvnjMdpC6g2T4WXn4D26SJKmz6uvrw6WXXhpWWGGF2Fi88MILw7Bhw9JH27fggguGqqqqsOSSS4ZPPvkkrLXWWukjkspBQOHxxx8PU0wxRTj44IPDiy++GMtVTw8yFIvFsMUWW4Szzz47fPjhh+leVbrZZpstfPzxx+nWCGQyDB48ON0a2TzzzBNeeOEFsxvUbSRNjY2hqakp3ZQkSZ1RXV0dDj/88Ji1wO2YY44JvXv3Th9tH6NWp512Wnj99ddjUGKCCSZIH5HUWT///HO44oorwl577RUWW2yxcPrpp8efpJxffvnlLaPDPdU000wTMxEvueSS0NDQkO5VJSIIxhoLe++9d3jggQdiRkJnZdkL2ToNZl2rksWrRVRa5gIpbvfff38cDaIQrbfeeuHdd9+Nj1122WUthSu7ZalC2VSHbP9qq63WkvpNQdxggw3CbrvtFlZfffWW9FVSU3l/nk9q67fffhv3k6p6yimnxNElHjv00EPDoEGDWj4jn8J63nnnhaOOOip+7yeffDKsssoq8TW875tvvhmf097vxEljo402Cueff348efCZ55xzjhWF2sUxvN9++8XjiePq6KOPbhmpaev4bc1nn30W0/Ky9+EYzjACtPbaa8fHKB/bbbddLIPg+LzyyitbKjw6V0TfpUpRet6nPsgf78sss0y4/vrrY3oxqEu4ZY9znn7iiSfCQQcd1Gr5oAxmj+XP21k98Y9//KPV+qW9+kAa26gbCJJxDHNjJJwMnOw4pm7JjtVdd921pf3UWnss3+5q6315nA5x1rminbTyyiuHBx98MG5TBvP1zPHHH99St5ViSkD//v3jaHCmtrY2ThfgM6mfbrzxxljm0N57Z+eLPffcM/4uvPauu+7q1GuRdR7zt6wTyOt4fYa6Mzsnlf49kP+sjs4XCy+8cDyvff755+kejQlZeSj9N85u2b8X+HfP/3vzb3zBBRfEY5F1FgiC7bvvvi1lJY/jYJ999mk5rvjJ87nx2ocffjhmMWTHllRpkuqa6phaVUkYyTnzzDNjp/3VV18N66yzTjj11FNjAdtpp51i4eJGo3DGGWeMaWGgsLEwSvb45ptvHg455JCWAkoa0qqrrhrn5k0yySRxH6lkV199dXj22WfD5JNPHi666KJYaRAJ/+CDD2KqHY1JGoWcFIiCUyE88sgjsQKj8nz++edjQIGT/cknnxwrnFdeeSXsvvvu4dhjjw0//fRTu78Tvvzyy/jvQEOWz77nnnvC+++/Hx+TStHYYKSirq4uHrs0gL766qv00dDm8VuKUR/mfdOw45jleGU0lffiuD3hhBPC1ltvHY9ZAhm8Z+a2224Lt956awy0kbLHaBFBtuyYlipB/rwPjveVVlopHu+UE+oRzucZpihwruaYpsHI86ljeD5lgCyD33//PdYTlJV+/frF5955552xc8Q5PEPdQDmlDFJmOa+jo/pAGls4jun0k8H69NNPx7JAZ//2229PnzGic8N6BhzHBOI4prMONx3drM1FHTPRRBPF/Z15X/z666/hpJNOCttss00sp6UoW7fccku69UfUfwQRevXqle4J4a233gqLLrpoeOmll8Jxxx0XrrrqqvD999+nj/6/1t6bttiWW24ZyyVtubamHLT1vbKsCW7cbw3vR0c0+xt2pKPzBW3XySabLLzzzjtxW2MWA4Ec79QH+eOf/klbCCLQP5l55pnjNnXQEkssEeuNjjBdgjUZppxyyrjN9B8CF1kwTqo0SV1tXWhqrKxpEXPNNVfssFBh0OFedtllY2MuPx+JzhIdmU033TTMN998cR/BhfycJAo9BfLTTz+N2wsttFA8KU866aQtARUqNCpDGohUKFR+v/32W+xQcQLhMW7Mp83mSFFhfPfdd/FkQaSYIEM2J4rvsvTSS8e5tHTYaJhyv6PfaYYZZgibbLJJTKmdc845w/TTT99qZSiBoACNKo5fjl2OUUZhM+0dv3lEyGtqamI5yuZ/00ghiEBDhQVfmQvOMTvHHHPEYxNkRlCxMSJMZclxu9lmm8Xj2RFYVZL8ef+9996LxzvHKsc7xzSBg3vvvTd2hkCgeOqpp47HNOdwzulzzz13y3mcdRY451MmjjjiiHjjuQS6eW6+nJGtwHtRBhl1zB7rTB0njQ20d+gYZXUJ5YSOS9auwp///OeWeoZRfZ5PUKA9nXlfytK5554b65Vtt9021jd5fMbFF18cMztbQz1EmZplllnSPSMsssgiYcUVV4xllvZanz59YrA8r6335vuRCUC5JNjB+YMOfV5734vP4rVt4TzDa5dffvn49+yMjs4XBFYYMMsyo9Q9kOXTWrusMwg0tLcIpDQuJUOGDgl1wxtKlYST5x133BFPoIwc0fjjRJrJTs5UAKSvgo4+BTWfojRgwICYKpZJkvavi0EDkcqNSDuNR+bPcjLnvYgYZwgEECkmHY8IORUjBZ0gBpVZVkHyfgQaqEA6+p2kcnCM0klqq3HS3vGbR1kioJYdlwQXmApB0IzHJp544pFGhDKMuPA4jcYMjSoyezyuVUny532OWc7LnKczzFn+5ZdfYhZQqfzzSnGepwNFgI2ys8ACC8QgRWdYH6hS0Ommk5IvJ7POOms8LltD+SEoQFlqT0fvmw3iEKQmsNBaWSMzbqaZZhopcJ6X1UPtldO2dPTe4H2p10rLZluv5SoAdPJbqzMzpLLzu//lL39J93SsM+cLgvxd7aiqY3TiCazRPmLNBP4dmAZH5gH3uXVlmkJ7Czl2ZFReK41JSX3MXKisuf1UNqSPksZK5DufagfSsUlRpVGXVSp0chjtz9KVuDEviQqgs5gLSGXFjXRXRnAZHea9SH/KULkS0b777rvDQw89FEe6aGhycqeiy1LdSB+k0cq+jn4nqRwc9ywm19rK9Bxv7R2/ebwP6aPZ9ZazG409GkhtNSI53nltvmJjFIkGT3sNK2lc4pilzOSP6W+++abD0cbWMCWOkVjqAuojyg3Zcp1hfaBKQT3BmgX5hb3pSBEYaA3lh7ona3u1paP35Xi/9tprwxprrBGnRZSuCUSWEYvekWre1mdl9VBrdVR7OvPe4H2p1yaccMJ0T/uv5Xdtb2FWslFZZJK2az4w35HOnC8Y3CJ4ozGDKW7It5Xy0yL4NyFzOr9uxpjGNItyjiNpbEk4OVYNrygqCZUMjT1O0pzYCRJkUVpGWVkIh7ngpJtmGDEl9ZvHsjQhoopUbtkcp9aw3gIp5nSSrrvuupgSx+fyHRi1pRJl/nl+Hi3ISCB1nBFepkSAxX/4fjQ0CSxQIWSLH7X3O0nl4tgkK+Ff//pXPHYZCWFeK2jgdHT8Zmafffb4ekZiaEhRFpjb+cUXX8SMHI5Vgmgcz6wBQsMKHMtkCpFBRKOG1xL0Y382MiVVGs7VZCjQEOSY5dhlzYV111237KBYNj2CcgamA7388svxfkesD1Qp6KRyzr7pppvisUhdwkJznM8zrLeQ1TOsOULdkx33benM+9L+3H///eN96p18kIDPZNoB043aQhmiQ806KeVo772p45gGQZ3H4BEdR7JkM229lt+PNSnIYGoLwX7+JkzbKEdH5wvOQwxk5dvEGr2yaQjZgAr9DP69s4AO/YxypzOT6dJWgIDF5skk5XghC5vjkul8bHPjPv2bnn41FHVPSd++fULvChtpZI43J0nmzDFPlQLNiZUTKA1BOvSkhWWFbId0tV4iyRTUrECSMkRF2F7ho3PFvNillloqnqxJd+L5rNRKiiuVCvenm266eFLPKj++H5UIo77ZIivMy2VlZK6zzDw9Ol4sCMRz2/udpHIxYsOCoTQ2OHbpHGVZDEyX6Oj4zXBMnnHGGXElap7LKBJTfkgVZ44sCzwyWsLxzLGcrwQ33HDD2MhirRBeS2VIxgTfSapEHNOsIk/6Kscs6+xQl7BIb7lIf6azxDHPe/G+TJnLGp/tsT5Qpcg6+ATLqEtYaI72UzblFATeOGYZwKFDs/POO8c6qD2deV9QX7DoIosvXnXVVS2ZnwzgsNZDR3hvpqiWU3bae++pppoqZlRQ5/39738PBx544EhXomjttbQ/+V35XSjTbWFtCNqbrf3tCE7kO4+k2zNAxrmqo/MFa0Bwow2qMYPANP8OdPT596GfQX8jW8SR8z7/Lll/APkpE/zbsqhp1j/hxr9va9kmBCoY6OTfnEASNwZ7CIpnWRPc8mvMSZWksN5qyzdXVVWHW+/9X9xB4VDH6KQddthhcaEwFv2SxjZGVpjPmjVUWH2a7AIuQdlRw6+zOM6z1E8aUMw5pHHY2qrekqSeIzvncwliggOViE41VwUjRT3LIu0qOvJkv3Y0KDU2lPO3J5uCjivTS7L6WmNXdtnJ0dHh5zgk85nAA4Et7uevKsFUDAMLqjQEnjNJVRXzTDt3ORyNQGSdSDlzddtLgZPGJBpAXDqVjAWyeVjwiUya0RVYYCRljz32iNMtCGRwWUsu09XeNCNJksYWpmeQfXTppZfGDnlPQqYgmYTtoR3KVJO99trLwMIYRIc/yzho7UYgYHR1+LMpGBzXIAs7v9aDgQVVuoSOSLPBhbKQKkdEmbR0Fi2SxgVSulkdmrU+1l9//ZhNwFSF0YU5s6wZQiYEKaKnn356vAIFU4kkSaoEjOyTbv7YY4+le7o/MicuuOCCkS7dWYrMQtYKI7DQ3toUGnWsj0B2TH5aQv6WTY8YHcjAYRSYY5pAAlPvXFtB3Ulhk3UGNDc0NYbb7h1xCRWnRUiSJEmSpI6MNC2COdv19eVdxkeSJEmSJCmTNDU3hro6V6iWJEmSJEldk8QV5wtJuilJkiRJklSehCsf9OrTO92UJEmSJEkqT8KVIqqqqtNNSZIkSZKk8iSFQhLIXpAkSZIkSeqKpJAUQmNTY7opSZIkSZJUnqS5yawFSZIkSZLUdUlDY1MoBK8WIUmSJEmSuiZmLhhckCRJkiRJXZUMF5oaXXNBkiRJkiR1TQwuNBhckCRJkiRJXZSEUBj+w0UdJUmSJElS1yRNzU3kL6SbkiRJkiRJ5UkaGxpCaDZzQZIkSZIkdU1CWKGpqWnEliRJkiRJUpmSYlXViGUXJEmSJEmSuiApFpNQLFalm5IkSZIkSeVJCoUkxOwFSZIkSVLF+eGHH8IOO+wQf0qVKikkPWtOxNtvvx023njjblnw+M58d36HcWHYsGHh/fffD42NjekeqXyPPvporPyGDBmS7vl/HONff/11uiWNO0ceeWS47LLL0q3ycAzbuJO6Jl8PfPTRR+GXX36J96VKRbtm/vnn7/DG80Yn+gMnnXRSvE+b6pBDDgnLLbdcmGKKKeI+qRLFa1DGy1FWEArT4osvPlKB3X777cNnn32WPqNyjesAwah46623wn777Re+/PLLdI8qGZ0jbqVGpdPUFio1AgajWnFec8014Ywzzgj19fXpHql74djlGOZYlrq7n3/+OWywwQbh+uuvT/eMwPYWW2wRfv3113TP6HP77beHU089Nb43Zenee+9NH5Eq00orrRTeeOONdm833nhjePrpp9NXjB4zzzxz+OCDD2Kb7sQTTwzTTjtt2GmnndJHpco0IrhQgVeLmHjiiWNBpcC+8MILYa655oqVUW1tbfoMjW6LLrporORnmmmmdI80eu2///7hrLPOCtXV1ekeqXvh2OUY5liWurtJJ500bLrppuHOO+9sCSQMGjQo3HXXXWG99daLbbHRbddddw3nnntufO+LLroobLXVVukjUvdAZz8/AMpts802C8sss0z6jP8flOGx1VZbrSXbjdeWZne2NVjUt2/fGFA455xzYhmdddZZ00fafo00rsXgQqVPjejdu3dYaqmlwieffBIrPbz44oux4qPQrrDCCuHJJ5+M+9Hc3BxuuOGGmP2w4IILxkLZ0NAQH/vxxx/DQQcdFF83uh5rDwX/hBNOiJkXvJbv/O6778bH+J5U4Nn3PPnkk8PgwYPjYyBTg0qX13HCYiQhm7LACPKWW24Z35vX8h4EY3hP5F+b//vw+P333x/3lX6f0ikl7f2N1T1wnDAqtdtuu4XVV189Bo+23nrr8Pvvv8fHf/rppzg69dprr4WhQ4eGU045JR5P/JsfeuihsbxxXKy44orxeNh7773jMd3ecZTH6w888MBwzDHHxGk3VKpWhhpbOEdfeeWVLZlwnIe//fbb9NEQvvnmmw7PzTy25557hu22264lI41jOMsO4j4ZX9m5cqONNgoff/xxfEzqDqgbOP8/88wzcZv6gKkKnN9LszHffPPNsPLKK4cHH3ww7lt33XVjXUG9we2SSy5paRu1Vacg395oLeMzX8Z4v/POOy8svPDC8X1IDf/tt9/iY+3VKfnHeI9jjz027LLLLvE7dLYOk1pD9kCWsZCd/7lPhkOGTAMygR9++OF4HNJvAK89+OCDw/rrr99yzPNcAhCtBR3Ae/M+9G2yDNK2XiONa0lD7KxWdnCBCopCRQd7ookmCl999VU4+uijwx577BFeffXVcPjhh8eO+XfffRefT2EuFovhiSeeCFdccUW455574loCVC6nnXZa6NevX8yGIApIBcnzcOmll4ZevXrFx2hY8pk83tHrOvLUU0+FI444Ir6WSox0Wiq2d955J1aYnHBeeumleJLIggukKh5wwAHxRPXKK6/E34PgwiOPPBIfB9MY5plnnvja4447Llx11VXh+++/b3ktDQBeS4XK9+fvRoDm/PPPj6MG/O04IRKgyCr8TEd/Y3UfdHRWXXXVWCktscQSMUD14YcfxscoFxzzs802WzzGSL97/PHHYyCJThgBK46xxx57LCy22GLx2KFC68xxVFdXF84888wwwQQTxOOHIKE0NnHOvfXWW8Mtt9wS75OVRdZB1vnpzLmZ45uOzxdffBFf0xrOu3SqeJ/55psvZtkRTJO6g8kmmyyOut50000x8HzHHXfEgDIjpnlkNjD/e5tttol1CmhvUDe8/PLLMZB37bXXhueeey4+1ladUi7ek/e/7777wvPPPx/rkgsvvDCW1c4ikJC1laiTXn/99Vg/Uc4p4+uss04st3bS1BYCAVnAOevQE8CinqBfkA9yZUGDueeeu2XALo92Fe2nf/7zny3HHO191lPIpijxHgMHDmx5X9ZZ4DW33XbbSK8h8F06rUkalxJOzs0VOC2CSozKjkJMh4hCRmGuqqoKU001Vaxs6IwTRCCaTWXDKCxmmGGGsMkmm8R9c845Z5h++ulj44/n0pDkxmMzzjhjbAhmo0yk6DHi//nnn4fpppsufgYVbEev6wgN0znmmCO+lu9Mx52ACSPB/H5LLrlk/L2ooKeccsr4Gn7fmpqa+DfgMV7PCDMjz1nDeJFFFglrrrlmy2v79OkT/wbZa0l15DHen8YDlTwdSf7NeQ7fgVE7Oom8Nq+jv7EqAxUax1D+xr68hRZaKDacSH+dfPLJw9JLL92ShUIEnOODxhYZDRwLBPC4Ucm1dYx3dBzx2NVXXx2PdSL0HDvS2EZKKccnwYJCodByHuechs6cm3ku53vKT1tWWWWVMPXUU8f3YWSU86QLl6o7oZNCtsLNN98cywsZOJSZDGuN0LGhTbXtttu2PDbNNNPE11JOqGt4HcEElFOntIXySH3Fe1HGqGPIJKK8Zpmc+XqwtQwEsi2YfkFghO8Lptryu5JVwXdfdtllY2Alnz0qZWjr/O1vf4uZoGQR/OlPf4oDfBzPDERynCPLtqHPwRSGDTfcMLbjGZQhwyGP9RTw6aefxp/g+OU9CR7wHhyf1GMZXtO/f/+RjtN55503lpHWghjSuJAkxSQ0VviaC0SV6bwwGk+UnIqAyDipfFQmVDIEBDpCZUgqHSnivG6BBRYYaSEhghdrr7122GuvveL6A0TGeU1Hr+sqKmsqSgIApQgg0FDNP0alSOXPiHB7eC2VKZUl35cGMo3lLGjCSZBFZ5Zffvl44mO15qyxnenq31hjV5aKl7+xLy9J4uynFgTMOD6yTBa2wXomTF/IUlgZ0WlLR8cR34OKt7VjWxpbOFeTln3dddfF8+COO+4Yz+X5TlNr2js3d4TAG8xcUHdC+2KNNdaIAQRGW2eZZZb0kRDLDJ17MjYJLLRXLsjwzDLYyqlT+IxsQIlbFiQnuECgLv+ZDH4wgpzty+rBLAPh7LPPbil/vA8DMwRA6IRlqKvI0MjaSTwnmy4olaKjT/+ATj3HC4N1HE8EEAYMGBCDB5SRLDCQ4bjj2KTsdOYKD5QftBXkItDAc/KBBLZLs4ykcSkhsNBRQ2tcoxKgYcjCk6TVkc5GBciN+0QNO7MIIRUe6UWk8zFdIN8RY6SVyoio+wMPPBDfk+g9ke32XjcqWBiMijPLRMij0uT75B9jfjAN3tJAQCleS3CE4ADfNbvRKKCyJ4vhggsuiAEHFlYiTbA0I6Grf2NVPqZAgBRTKioqR44zps5wbDz77LPxeCmNsud1dBxlqeE0WEmNpXxJYxvnVzITmDLGcUogjOk77G9Pe+fmjmSLDputo+6GzhMdd0Zn8515sg7IZCT4wOh/6TTKPDpFZMKVW6fwGdmAEresjUWbh45TvixSxshuLa1XaBtRxqmHSCcH73PTTTfFAaGHHnoo7gOdPabMMl2Qz+Oz+Q5SWwgcEETgeLn88stj+ylbe4HjKZs2zP7OZBOQscA6JwQuMpSf9rLeCFwQ2MjWR5EqUcIJu76hsi8Lx3dkrQEqEio+CheNPwowaXHMB88XzrYwGkWllK1+TOoc8/jA+1BpZhHvfAe+vdeNCqYycFIiCMDvSOM3+z2Yj0WGAhUej3ESYk4ViydlI2NtmX322eMJirnGvJZsD+YWMmeY706Enp+MaLcVqOjq31iVj4YfwTpGkfhJJ4h/YxqMHOP8u5PV0NqaIowuoaPjiH28DyniHDv5Rp00tnDs0fijsZZloXVG/txM2SDTh/NoWygrBL6pO1i7h/RtR5LUnXCcsy4BwWamQZYi2JBdIYX2BG0L0C7g+Of1ZA5wmUlGaztbp3SE4ALTKWgLUQYpY7TVyJzjM/LY5jMIaJA6niETg+lQvI6yDL4b7019SCCRARQzF9QWpmdTj5DF21rAgOkQTAHNrnxClgJrIZDV0NolvHk+j/MaBmmy9yTThrqD1zNNunSdM9r2BM4IljFVA9l6C53JjJDGhmR4j/0PJ+hKkF9zgYqOwsOicFQapMNRYImuM0JPB4eKhEqnPZNMMknYd999YzSd92RhL9ZnoLBScTLtgsUgeX9WEGaEl3Tv9l43KqjwWEmfG+9LB4zAAJjfy+dwUuIxrgxBZ45pCh2hYcu1o2ko8FpGG5hrzygyacKMMjPFg/tU0Icddlj8u+Z19W+s7oHjm7l7BBdAwGqfffaJFRbHDPeZ+pCN3hJkInOHRT5Jc+3sccSxyKKgTDFyDrrGNhqCLGzLqtzMB+d8SmOOTkV7ODdTBhhp5XUsVNdexhgdKMoD500WSXWdEXUndGxYv4lpAgQQ2jp26YiTocbCiGQDMeDDaD9BONaAYmopGZKUg47qlHJkV75ibRPqLAZe+J5ZdkW25gJllfUesvWx8qi/WIiSx8gCXWuttWL9xLRA6kM6bJwXsswjKY82ENkKZDHTNuZ4y9/IamBBXwYGM/kpEW09n7XRmIqdvSfZDvkFHMlSyAczuE9ZO/7442NwovQ1UiUo/HnN5ZvrG5rC/Q+OWOAtSyWTJEkjGnS777577FjlG4+gUcdoLxkS0viEkVMCziyW6KipJI2/8tliSZIUQ1VV+3P4JUmSJEmS2pKE0BSaGivvahGSJEmSJKl7KPxl7RWb6+sbw90PjFhox2kRkiRJkiSpIyNNi2D17PwlhyRJkiRJksoRL0UZgteglyRJkiRJXZMUO3ndb0mSJEmSpNYkzaE5MDVCkiRJkiSpK5I4JaLZaRGSJEmSJKlrkkIhCU1NjemmJEmSJElSeZJiVeK0CEmSJEmS1GVJMSmGopeilCRJkiRJXZQUkkKoMrggSZIkSZK6KGluYjFHF3SUJEmSJEldkzQ0NIS6+oZ0U5IkSZIkqTzJjz/9En77dWC6KUmSJEmSVJ5k6NDaMGTosHRTkiRJkiSpPEm/fv1C33590k1JkiRJkqTyJNU1NaFXr97ppiRJkiRJUnmShsaGMOKKEZIkSZIkSeVLkkIxFJIk3ZQkSZIkSSpP0rtP71Csqko3JUmSJEmSypMkSVVobGxKNyVJkiRJksqT1DXUB9Zd6CnefvvtsPHGG4cffvgh3dN9HXnkkeGyyy5Lt6SRff311506zjv7vI5wLHJMSj3FuDymm5ubw7///e9w3HHHhf/+979hjz32CIMGDYqPDRs2LLz//vuhsbExbkuSKs+QIUPCPvvsE/seHaEdtsMOO4xSe6wn9XHUcyX19Y2hkFTWtAgKz+KLLx7mn3/+ltv2228fPvvss/QZlSv77occckhoaBg5aMM2+3m8MyciqS319fXhjDPOCNdcc026p3X551EJUrHly1V2M4ilnurFF18MG2ywQTzOF1544XDKKaeEwYMHp4+OO4VCIWy77bbx/kUXXRT+9re/hQkmmCBuv/XWW2G//fYLX375ZdyWxgY6LKuttlrZ9QEBOgPPGh/17ds3bLjhhuHaa69N97RtiimmCMstt1y488470z3lm2eeecJaa60V6wipUiUhKYa6usrLXJh44onDjTfeGN54443wwgsvhLnmmiuceuqpoba2Nn1GZXvyySfDJ598km6NwDb7pVFVXV0dzjrrrLD//vune1qXfx6V4OWXXx7LVHa74oorwtRTTx2WXHLJ9BVSz/Hhhx+GY445Jh7/r776ajz//vLLL+HYY4/9Q/B3XKiqqgpHH310+M9//hOmmWaadG8Iiy66aLj33nvDTDPNlO6Rxjw6PwQJKCcEo9tDACILTj///PMxGCb1VPnjvfR28MEHh6222qrdAZzsdsMNN4T11lsvfdc/ovy19rr8jfeYd95501dIlSf55edfwo8//phuVqbevXuHpZZaKnbOs7RRRqMooBS0FVZYYaROO+mmFD4yBBZccMFwzjnntDQk+V0POuig+LrR9VipaaedNswyyyzhoYceSveMwDb7eTwzdOjQOJLGe7b3vvnn8R0OPfTQ+LcgA2KdddYJH3/8cXze77//HrbYYovwyCOPhEcffTSe6LJGAqMSpFOZNdEzUAllI0ztHZ/55+V9++234fjjjw+77LJLmG+++VoqRo6bDK9rbUTKY0vdASP//fv3DwsttFAoFouhX79+Yccdd4znSW6l8vXKKqusEh577LFYnzz11FNh6623bnnNTz/9FM+zr732WixnV155ZUu2XXZuBmXnhBNOiJl3PMZ7v/vuu/ExUG/xOdljb775ZtxPOcpSX7m/0UYbhfPPP7/sOk0aFfnjMI/jmmP3ueeei0HqBx98MAYmpJ5qp512GmlghvM152TuMwBKRkFrAzjZ7eGHHw5zzjlnOPfcc9stKyeeeGJ8X2TvX+57SONaMnDg4PDrr39sZFUSOtYUqmWWWSZMNNFE4auvvoqjPcxRZTTq8MMPDyeffHL47rvv4vNpUNKQfOKJJ+LI7D333BPnr9LgOu2002IDk5MBqUlUijwPl156aejVq1d87K677oqfyeMdva4Uo8VUyAQTaISCRikNVPbzOGi0cpL44IMPwuOPPx7uu+++8PTTT8f3LsXvkT2PSp2OIZkds846a5h++unDSy+9FJ9HAKauri6e6DT+aOvYbQvH9MUXXxyDCqT0ST0RGW+sX0BnKFvDgMbZP//5zzDppJOmzxqBLAfqkt133z288sorMfBGQPedd96J51Ney3PAe1HeZptttnDbbbeFW2+9Nd6effbZMHDgwHD11VfH54Hz/hFHHBHLJgEApihx7ud9qbf4HD6PzyWjIqsz8rpap0mjisEQjq8MAYcHHnggBuJWXHHFGGhmKgXHdj4QzX72cSModtNNN7UE4PiZBaJ5XvY6fvI4c9izEeB8EDt7nM9jmmz2HN4jG1nOvzey12SvKw2USF1B27scBAOY/sb0iex4bg3H7gUXXBDbcCuttFK6d8QAzpZbbhnee++9Tk3BkMalZNDwg7y6pibdrBy//vpr2GyzzWKFsMQSS8QCR0VCGulUU00VCxcVBQ0u5tGS3ZA1ymaYYYawySabxH00JOl8f//99/G5NPK48diMM84YO1fZqD9TMaiwPv/88zDddNPFz6Dy7Oh1pX777beY4sqIWTZKRdSR707mAsES/Pzzz7FBuOeee8agCZX4GmusMVIWRoZRM6KYPI8b87b4fL4PJ6BnnnkmNjSp8Oeee+4w5ZRTpq/U+KCtY7ct999/fwxIcexxXEo9EVN+GEninE3a6mKLLdbmmgsEdrMOCGVi6aWXDssvv3wMEk8yySRxOzs305lhKhF1A5353XbbLX4GnbBNN900polnDUgCynPMMUc8V/PeBMepAzj3U4/wvnzeyiuvHA444IBWy2NX6zSpM/Id8L333jvdO2J+91//+tew/vrrt3TYaWtQ39D5IWOHG69nm+OespHvINH24T1OP/30+Nxse999940dJsoPHTVeQ8eJ19B2oo1DZgT3P/300xg84P15nM+jrGy33XZxm/egTGXvnXW+eB4LGmcZFptvvnnsoBlgULmy4FV2I0OMspJtZ9mhHMdZEC3bl8myDTiO28Kxu9dee/0hM4HAMcdvVs5K31uqJMlEE00S+vb9/6h0pcivuUB2AmmlVCZ0yGlQUVmsvvrqsQDTYKNT1REW0KLjT0OQ1y2wwAJxXmuG4MXaa68dCzZzXi+88ML4mo5e15oJJ5wwBgruuOOOOHLGT7ZrampiZgGamppiRgMVJO/LjRMWjcYsAJFhrQnmDmfTIs4777z0kRAbzHQsuTECRpot31njj7aO3dYwYnrmmWfGeej5ed5ST0RggDmxNMhuueWWWFcwdYHzch6Ln/bp06elc0/5IZCdZcQRrGPaAsEBMsTYJgOBoO5hhx3Wcg6nwUlmWek5vBQdJj4rK6cEBwg0EDzurK7UTVJevlNPeytLyc4QYKD9QrZPFmBgwIfOT9YBYv4399n/0UcfxQAEQbDscVLI8+uHsM1xTief9hvtHgaTWKiO1+RHhckEok1EwIzOFY/zebSxss8FQTWQTURAgXLO70XZJ10dfC5cDE/lYloE/Q6CwFnfhJ9ss5/HCShTTgiisY9gNMG2PI5tykhrsoB0e+spUGYYfOW928uAkMalhE58v34jVqiuVAQTGCWiM06j7fXXX4/TCbhxn0qxMwtfMQ+WSPaqq64aO+GcHLLKhkYijU3mtpLyx3vSCbv55pvbfV17WAuCRijvxU+285IkiQ3f66+/Pr5ndiPFnUZuJkt9nWyyyWLaLc/JL57EaBWNYBoABF+cEjF+ae/YLcWxzAKPjOLmU+6knujss8+O507QEafjwXS6b775JnZa8piuRkCA8y0oVwQWsis48FowfY3OCo1E3pMAAZ+TP4fzHM7X7Zl55pnjZ/E5YNoFi01mn98ZXa2bpEzWOS8dzWctD7IPwPFOBgFBgzxeS2ZQ9h5tIaOH1xMkKEU9lJUbOmjgZ3a/K8gCzbehMnwPsn6kriAgTDZc1sbmJ9vsz3CcUx4oMwS2KEOlZSurS8D5uzQAkcdrs3M8a8kRhON982u3SZUm4T/pwEnForHFAoU0wuhEE62jIUjhpUHGolutVVqlGJkiA4CACpiy8PLLL8f7vM9JJ50UG4l01AhoZNp7XXso/EzZ4MTAz9KTAZF7RptIbyIowO/JyaN0rjzfjUYkn8/vzchZfk4tc39Z1JG5uDR4sykR/GSuLlHS7G9Io1o9S3vHbh7lh+MLjABlI6YZGmNMqSANnOOF4+x///tf+ujIPLbUHbAQMB19RnkoJwQPaMhxrJd2PljThw4O51+OaTrrHNdkBIEgA0Fussb4SaYB70H6NudwMsf4DIJ71113XbzfHlJnyYTgc3gun7vrrrvGTl1ndbVukjJ0hMjoKR2U4DhkXQ/aW3RwyPyhU5QFr0pHTbNtHicDh+dnmQ7cp77IRmR5P9pDBNg6iwyHbLpPaVCDRfAIUvB5dOYYfOExsifybUOmQ/G5ZFhI5eKY4vyaHdf8ZDs7DrMMmSwzhjJFNg6ZOeC4pz7KT1vm2KUe4LHs9dmlKilTXL4el1xySawjqKOy12fPlypNUl1VjKn6lSa/5gIdc0b3WWyL0SAaZQMGDIjXLicFnAYV0cLSNNdSZAkwz4+RLN6TEVzmslLhMPrEtAsqQN5/hRVWiBUpi92197r20Hmj089342dpZ47PZJVvAiakVvHerJnAzzyCByxwRLorj3GfTmB+lI3pEpNPPvlIUyKY50snkvUa+Dsxx750ETN1f+0du3k0FknjI/uFxl+Wxs2NaRUcT1w5gqwHjjMWmMtXgnkeW+oOCC6wxgLTgLhiBNs0CGnQZRkJmdlnnz0usMiiWxz/jA4dddRRcapBhrJFhyh/6VaygNZcc824tgKfQaBh2WWXbTPIl2FtHOo0PofXscAqizsyEtZZXa2bpI6wGCptF4512luc7+nA05HimM86TBm22c/jdKoYVMnacBzj2Qr3lA/WX6BcltM54rMJMFBXlQY2MnwugZKss8d3IEWdgCKdNzpqBB7slKkrOK6OO+64lqnM/GQ7O97A8UUQIDtGswwcnk85YupqaSCPKT1ZQIJjlmA4z6fs8RnUVwwcso9bts6JVKkKq6y0fPOwuobw5FNPxx2lqaLqHuhYcrKhkUmwQpIkqT10ugk60+kBHXE6L6zbM7Y64XwmHTI6UXl8N4LcdOCyDhnBQQJqBCtKO2lSd8BxzcKiTPMmmMzgIplzTlVVd0YwOpMUQmPo3693uqnuiOyFu+++O6YAtjXSLEmSlEcKNpln2UgrnXym+ozN0X0+k0UY8xkJWUo4DdbS6RP5zNb25qtLlYgsBQYDmeJAkIypFe0t4ih1N0lTY2NorB9x9QJ1P1x+c911141pVDvuuOMfpl5IkiS1Zosttog/ScGms45RWUyxK7IU7+w7cOM+QQ7WVsgHOshW4DKu2SKQBCYMMqg7IZBAlg7HLVOEuHoRa/sw7YesBqm7Kyy72PzNNb16h4efHHHdVadFSJIkqbtgUeO//OUvTpWQpHEgPy2isPxi8zf36tM3PPj4s3GHwQVJkiRJktSRkdZc6FVT7bQISZIkSZLUZUld7bDQYHBBkiRJkiR1UVIsFEJVkqSbkiRJkiRJ5UnqGxpCYnBBkiRJkiR1UTJs2NBQX1efbkqSJEmSJJUnGTpkWKivN7ggSZIkSZK6JmlqbmblhXRTkiRJkiSpPElVda9QLFalm5IkSZIkSeVJQqEQ6uob0k1JkiRJkqTyJPx/6LBh6aYkSZIkSVJ5kkknmyxMNtnk6aYkSZIkSVJ5ksbGRq8WIUmSJEmSuiwZNHBgqK+rSzclSZIkSZLKkzQ0NoTaeoMLkiRJkiSpa5KQJKGxqTndlCRJkiRJKk9SKCYhGX6TJEmSJEnqiiSEQmguFNJNSZIkSZKk8iTNhRCampvSTUmSJEmSpPIkoTnw/4ry6KOPhh122CEMGTIk3VO52vuuP/zwQ/j666/TLWn0GjRoUNh1113Dv/71r8AlZdty5JFHhssuuyzdGv3G9PtLYwLHLMfuuPLmm2+Ggw46KLz33nth7733Dt98803cT7neY489wn333RdOPPHE8O9//zs0N4+opa1TNLrRdqENQ1tmdOpqvfD222+HjTfeOB7reWyvttpqYf755x/t31WSNPokzWH4/1zPcYy45pprwhlnnBHq6+vTPdLoc++994YZZpghbL/99qFYLKZ7JXUH8803X1hjjTXCXnvtFXbbbbcwzTTTxP0TTDBB+Nvf/hYuvvjiGDTcdtttQyGdumidovHVFFNMEe64446w2GKLpXuksY/AFgGu/K21IFo+GMaN+6UBM16Xfy2BtcUXXzw+n4DfZ5991vIe2euz9y0NsPE+2We1NuBZ+n2ym4E6jQlJU2NTqEpc0HFM2H///cNZZ50Vqqur0z3S6LPpppvGTkhVVVW6R1J3QmPvwQcfjIGGPAIN//nPf8LRRx89Uvm2TpGkcYMO/JVXXhmee+65eFt55ZXDjTfeGD7++OORsuDo2B9yyCFh8803D2+88Ua8cZ99bWVk0/nnfM/78/xpp502ZvCce+65I72+X79+cd8FF1zQEqwgQPDkk0/G75S9lqy3DI8PGDBgpO/Djefzea0FR6RRkRSTJNRUYEOF1NCTTz45LLjggjGSRwHOUkOJ5m211VYx6rbMMsuE66+/viUt/Mcff4yppjzGa88555zQ0NAQHxs6dGg45ZRT4n4eP/TQQ+PngBPDCSecEEeBeWy99dYL7777bnyMz73//vvDCius8IfH8nivAw88MBxzzDFh2LBhscCOy7Rb9Wz5tNP2jvs89lGZZNHxzpaB0tfxnG+//TY+lsfz11lnnVheKDed/V7SmNDZ4xYvvvhiPOZ53iqrrBIee+yxeAw/9dRTYeuttw6///57fN5PP/0Utthii/Daa6+NkfLEY+edd15YeOGF42M0KH/77bf4WL5OocG45ZZbxs9orZ7M/z7UXTQ+pbbQ2ciOx2yUFPl6Bu1tlz7G+Z73y268P6OzHLuMru6zzz4tj+VfRxtvwPDOUP612XFfite19Zg0ulAemKp28MEHh759+8Zb//79wzPPPBP222+/OL2NYxvPP/98/Ek9kcnuZ4+VuvPOO8Occ84Z5plnnrg966yzhtVXX71lm3M5Bg8eHPfx3LfeeivuI0C93Xbbxe8E+kd8H74zNwIN559/fthpp53i4xmez+9DXZYPelCmsnKXlVmpHEmfXr1DTVXlBRfef//9sOyyy4aXX345VlDMK3/nnXfCzz//HA444ICw0korhVdeeSVcccUVMbjwyCOPxNddeumloVevXuGFF14Id911V3j44YdjwQPP/eCDD8Ljjz8eG1o05miMZWhEHnHEEfG1FCpSUGmoffLJJ7FgEi189dVXYyGnQZc1IlFXVxfOPPPMmNJ6+OGHh969e6ePSGNee8d93m233RZuvfXWeHv22WfDwIEDw9VXX50+2nYZYJvX3HLLLfH+TDPNFEdQ84EC5ozTyGP+OOneBPxOO+20GGnnNVSefKcnnngifYU0ZnXmuMWHH34Yz9u77757rFeOP/74GIimzqEhx7HMc0DdRFmbbbbZxkh5uvbaa2O9R0OWhih1yYUXXtgSNMijccn3e+mll8Jxxx0XrrrqqvD999+Hr776Ko6CsXYDdRa/G8H67777Ln2lNDKOOQJqBBmWWGKJ2O4aVXS68iOlHOtZZ4ngF0Ex9tMOu+GGG1o6MZQH6rD8a/MjsdLYlgXbmJ6TRz3APjr7nHvx0UcfxeyBrLMP7rOPx9pCQCGvdJv6JfsePEZ7KgsKzDvvvPEnZp555vhZPJc6Yu65547BbOqgfOAQfGeCJNl3JbCQz4Lgdfvuu68BBpUlGd5iaZnPWUkWWWSRONrCXPIll1wyFgoqIw7wmpqasNlmm8V00TnmmCNGBJl/TsNs4oknjlHvzz//PEw33XSxobbiiivG92T0iSDBRBNNFG/LLbdcTGfKkILE+9GYowDSQCPbgYYkDTs+m21GmXifPn36xNfxGA1Knk8U0MCCxrb2jvsMxy6VEfO7Z5xxxtjpZ2oFHZisgmqrDFDx8JPOFucLOkzcsrUeGNUlY4esBQILPIfHsufxfnwm6d/5MieNSR0dt5mnn366peFFvbL00kuH5ZdfPjz00ENhkkkmidvZyD+jrtRJvMfoLk8Eqfkc6qqpp5461jF77rlnfG1ri7ZST6655prxOzMXneeTWTHVVFPFcwCv43uSBcF34DGpNbSHsg4GHRcWDm0rhXt04PjORmOzDlvWOZMqHR10sgOmnHLKdE/HSoMFHSltKxEEyMoKQQ1QZgm8lQY98siuoG9CsICpEQQOqceo8wgeZJk//E757AwQDOQ11CdSZyXDWzbDf1T2io40nGg0sYgVAQQaSfl5qMxP/eWXX2LDjFS7tddeOy6Steiii8YRnyx4UltbGztA2bQIUk87g84awQQaoDQ4N9xwwxh9zBqoFFiig/nvJI1N7R33GYJglJ/DDjssHv/cyDIgg4eOTnsWWGCBOJJ73XXXxY7VjjvuGFO1s8/IR9AzPMZz6HzxWbwHQUBpbOnouM1Qt1DHZOdwHqeDno30E6jj6g4EB8hkY3tMlCem09Gpy9clfA9SU8upX6ibGHkirZbvRZCBwKPUlqyzMqZkUyGyemL66aePAbmO8Hxex+ulSkEHPT+NoRSZmlm9kN3aywai/BFYzsoHAW0yFbJtOv4EF7Iy014GRB7BD96LbAYQsCDIQfY3fRcCCeuvv35LZkI+gJEZ0+cG9TxJrz69Q7GqsleapwFHY41FrGhg0QBjX4Z0bBqGSZLExzbaaKPwwAMPxLQ6RoZuvvnm+HxStCebbLKYvkqhImWvMwhK8DoWUCF7gsv/kYKajQIxGnvqqafGIAdTL1pLX5XGFI63to77PDpMlJ+zzz47Hv/ZjUg1x3d7KH+MwJJ2TRkgyMbUoKwTtcEGG8RV7AkykF4Lpg0REV911VVjqjmflY1USWNDR8dthrqFfVm9QpkisMA0N2SNK8oKIzo0zsZEeQLprPn6jfrn119/Lateef311+M0Pm7c55xAqrk0OtHx8dKoGt8wdYDjvr21Pmjr5OuF7Fa67kGGqUjI1mQgGEBwgWnfIHOAgU3qH8odgQiCxtxn7ZL8tIVPP/00fj+CBAQ/eF2WAc7+/FoQPM5nk92A/NSLTGcDGVImqa6pCb161aSblSOb/0cjK5v7Q9onBYEMBebo8RiFiMK37rrrxobeSSedFBt7dLbyqa+klNLZIX2chiQjUJ2d+80iXBRGfhLAyL8v2Md77rLLLvE7k0orjS0c220d93kE4Eh9pWJkCgWvo9PB6GlrKdd5HNdUilRMdKpKR34pA6S5EnjjuxDwYzSYjhFlDpSfLPAgjQ0dHbcZFgamjiE4Rr1CMIx1fMgGAkEGGmdku/GT7LkxUZ6y96R+Y30hyjPlicy5jt4zjwYndRINUV7H55lyrq7K0rPpwBDAzrZpf5HR0xoCcPmRWMpWZ9AhIosnW6wu/xkczwTfsveiE8RaDdLYwvpWHNdkh2ZTB0YH3ossAm7UKWwzIMrxTVAAZBtQnpgqRzlgm+eRjZ2ftsD9tdZaqyUDIctS4Hb55ZeP9L0pQwQ0CKDzfF53+umnt5RbyjzfgUUipc5KaNRU1VTego6M6jANgRRvMgyIzLEoyaSTThoXviJFjnmkrJZNx5/0T4ILLPb45ZdfxjRS1mygwBC1Y90E3oO0bF7HfaY75Eer2kIKK50m0ru5T0OPVNjS0Sk6VyygxUmHRqM0NrR33JeigmCONnPBF1pooViJsXBqWwGJDBFyLrtE+hyvo/xRCdIZymMElscpA6TXsRAQFSRljnI7wwwzxNWOpbGhs8ft7LPPHhc8vOiii+KxynOOOuqoeL7PUK4YTSK4kBkT5Sm7EhJXrOCzCKZzCUrKeWdxHhgwYEDMKKIOJbBHeSRYIZWD9hedD45JOh0sQprf3nbbbdNnjiwbHc1GTGkfcQx2hA5OtjBw9hmkdWfy34fgn9lwGlsIIjOYSbZZdlxnN6ZB5LU2LaL0VjpNgsFTAsEEL3icc3h2FaHs/fhcAtD5BU6zbIjsfZHPkKA8ZY+V3vgM1lQgAAFex/tnvx9XoSADrq3pH1JrCqsOWK65qpiE+x54LO4gJUaSJEnqLDoxZCzkOzatIZjGQnKje/RX0sgsaxpb8sHjpFhdxQTTdFOSJEmSJKk8CfOik6T9FE5JkiSpFPO2merDegz5KQySxi2mO7A+Q+k0jvyNslu6iKM0KgrLLbt4c+/q6vDgI0/FHU6LkCRJkiRJHRlpWkRzU3NoKGMVakmSJEmSpLyEy1WVswq1JEmSJElSXpIUq0JVVU26KUmSJEmSVJ6kqbEpNA//nyRJkiRJUlckw2qHhcbGpnRTkiRJkiSpPMmwoUNDYfj/JEmSJEmSuiL5feDA0NTk1SIkSZIkSVLXJIMG/h4GDRqcbkqSJEmSJJUnaW5qDoMGD0o3JUmSJEmSypNMPPFEoXcvL0UpSZIkSZK6JpliiklD/wn6pZuSJEmSJEnlSQgsFItJuilJkiRJklSepE+f3qFXr17ppiRJkiRJUnliykJ1TVXckCRJkiRJKlfS0FAfikkh3ZQkSZIkSSpPzFxobGiIG5IkSZIkSeVKklAITU1N6aYkSZIkSVJ5kubA/yRJkiRJkromiYGFgmsuSJIkSVJrhgwZEnbYYYcw//zzt9wWX3zx8Pbbb6fPkJQkxWIoDP/f+OjII48Ml112Wbzf3Nwc7r///rDRRhuFb775Ju6Teqr8sf/DDz+Er7/+Ot6XNPo1NjaG999/PwwbNizdI0nqTmgrbbvttuHggw8Ob7zxRsvtscceC6effnp49NFH02dK47dkuB4zLSKLKHalgBcKhbDGGmuE9dZbL9xwww2hwUUuVeEIDhAkwKgc+9dcc00444wzQn19fbpH6jlefPHFsMEGG8QRpoUXXjiccsopYfDgwemjY8eXX34Z9ttvv/DWW2+leyRJ3QnBhUUWWSTMM8886Z4R+vbtG5Zbbrnw0UcfpXuk8VvS0NgUGhob083xGwGG7bbbLuy///6hqqoq3Sv1bBzvZ511Vqiurk73SD3Dhx9+GI455ph4jL/66qvhySefDL/88ks49thjx2oAeaaZZgr33ntvWHTRRdM9kqTuZIoppgiPPPJIDFRnmZ/ZwM4555wTtzuSn1ax2mqrxYAFmFbB9Ar28zjPK5V/TnYzW0KVKKkf3sCqxOACjcBVVlklFh6yCd588824f+jQoXHkacEFF4yPHXrooWHQoEGx0K244opxlGrvvfduGdFlm9fz3BVWWCG+b2vael+p0o3qsZ/PgMimB/H8rOy9++678TE+h2lD559/fqzgKCtUqFknLV+GuFGGfvvtt/iYNC6QMdC/f/+w0EILhWKxGPr16xd23HHH8Pvvv8dbfnoQaKjlG3b5MkR9RPorZQS8lttWW23VUlaeeOKJcNBBB/2hzNGA3HjjjWMZkipJax0WbvmOT9YhYt/nn3/e0jnKbvkyRJlo6zHej/fIyljptlTJaO9svvnm4eGHH47ndo7f66+/PmYt5Pd15LTTTovTKXivO++8M5bBo48+Ogag2c8g55577jlSmaBcMfWCOiibjvHcc8+FK6+80gCDKk5CQ6kpbSxVinfeeSecfPLJ4fjjjw+vvPJK2H333eNI008//RSuuOKK8MEHH4THH388FuRvv/023HjjjTFNiUK32GKLxc7PiSeeGL766qtYYPfYY484anX44YfH9/3uu+/ST/p/bb2vVOlG9djPe/3118OZZ54ZzjvvvPi6ddZZJ5x66qktlRydNTppdKIoM/fcc0+cS8555Nxzz41liMj+008/HZ9PRoRTjDSuzDXXXHGdAxpmHKesfTDnnHOGf/7zn2HSSSdNn9U6sh4oN9Q/1EPURwTPqJ8yn3zySSwvL7zwQuxIHXDAAWGLLbaIz2caxIUXXhiDGFKlytcfU089dewkccMhhxzyh05/nz59wuWXX97SweE4p9OVBRGof9p6jODe9NNPH+uR/NSkaaedNqaWS5WMY3unnXaKGQx/+tOfwqeffhpee+21sPTSS8fHOY45xpEFzqgX8oE6UK7YT9mgfF177bXhoosuiu+LlVZaqeX9kQUPKHd8hyxwRwBik002cTqGKk4yImuhshZ0pKE233zzxQLL9ISVV145Ntq4v/XWW8cO1EQTTRRvRAw//vjj9JUjm2qqqWKhpWDTIWK+be/evWOQolQ57ytVunKO/Tw6YzfffHPMPOB1yy67bOwcZQ3BGWaYIVZmvBedNBqK33//ffj5559juaWyo9NGBbvzzjvHjCMCddK4QGeJBtmMM84YMwzoQHV2zQUCZFnDkLqH+mj55ZcPDz30UPqMELMZ+AzKA/UU9dbcc88dn09ZYh2T2tra9NlS90AnZ4kllojn76yD0xYydigDDMqUBiKyx7K2FAEEOmC//vpr7Gxx475UyTiuS7N1br/99vjYwIEDw2abbRYGDBgQt7MgGYEDgtoE2fjJNggO0L/IAnDUIQ888EDYcsstRwpA0IZ75pln4n3qIuov8HoGPgliU7e5AL0qUdLUNPw/hSTdrAxUZjTOWAMBNNxo2NHpp6HGHNps+gIjrG2hc0Ta0Oqrr97SSCSlrzXlvK9U6co59vN43R133BGDCryOCqwzI69Nw08klFfKambiiSeO+xy51bg0ySSTxNW9n3/++XDLLbfEcsCUnY6u3EBggFFa6iJwLNPgayv7J3uepJFxNaIs8DDrrLPGskdQWuoOCBjQkac9RMeeoADZPldffXXLlSNobxFoYIoDQQKO+XnnnTe+PvtJGWDgJct0AAEEpjtkUyQys802W/zJawiGZ1kNINuIfbTRCOrxvaRKktBgKlZV1kJuM888c0ylzua2ksrKIlxUSMxVmmyyycKzzz4bCzRpd20hxZtUbW7cJ9WPhbVK8VnlvK9U6Tp77Jd68MEH41QHrphCOaAiJajXkXjVmeHlNd9hY0Sqrq5upICDNDadffbZ8dwO6joabEwVYrSHhmB7WOCUdUSyaT0c3wQWJphggrgtjS+yzhX1Q76T0xV0rKgT8qncBBykSkbAgA49/RNwnylyWZCMMsLgJNuUETJ0sqsDZT95Dq/LB9aYZsE0iFKUjyzA0Jps+hHlMp/xIFWCJBSG/7/CMhdYXIh0POatEligQtt1111jgWSRRUZEafgxr5y536WyReSI+PE8CjTvQ6SxtWg5j3XmfaVKV+6xX4pywGgtHSg6VgQlOpN5wFQIyi1zzJkiwWuJ6pMaTkq6NC4stdRS4b777oujO5QDjkvmr3KMc6NTw7me455g2N13352+MoRlllkmNt6ofwgwUB+xnsjaa6+dPkNSueh40dZiqkSW9p0fyZUq1XvvvdcyTYgsA6bA3XbbbbG9xY31F6accsr4OAOU2foILLrI1AgwvYH9+cV9CQ5QRzGNCPn3og1HtkNbAQTehymwUiVJioUkNroqCQWWhbRIN2KV74svvjgupkUnZZ999okrqjKHnPvTTTddy+gShXDVVVeNC9kxxYHODvOguMY5lwBj1XtWDi9Nh+3Vq1e77ytVuq4e+6XWWmutOEeWq0+w2j2ju3TCOpo3zqjwvvvuGxchYu45nTpeQ4VqurjGFY5D1lhg0UXqErZpjNG4I4C24YYbtky7o2FHOcrMPvvscRFUFtqiXqA+Ouqoo8ICCyyQPkPq/igP2dWGWGdhVDMTOOfToeJGHcSaO7w3n8FnZYs60jljYVU6XqR5S5WMcnHcccfFKzlwbBMcY/o02QpLLrlkvFGfZMcyzycwnWUXZHULj1933XWxvZSVEwLW1C+UDdZ24L143+y9CHQbQFB3UlhzzQHNtbV14eGHR4zUd5QqKkmSJJWDq0awsB0Lq5Lllg/mSWobQTvWcciXG7IZWAiSx1qbWiGNTQxgZgprrbVK808//xKee/aluMPggiRJkiRVBqb07b333unWiMXuzfxRpRgpuLDqKss3f/b5l+H990dcKsjggiRJkiRJ6kg+uJCwpsCgQSNfm1iSJEmSJKmzkqRYFYrFQropSZIkSZJUnqSqWAwT5FIZJEmSJEmSypEUikmYZJJJ0k1JkiRJkqTyJMWkGMhekCRJkiRJ6oqkrrY2/PLLL+mmJEmSJElSeZIhQwaHgb//nm5KkiRJkiSVJwYX6uvr0k1JkiRJkqTyJI2NTaG5Kd2SJEmSJEkqU9Knd++QFAvppiRJkiRJUnmSQmH4f5Ik3ZQkSZIkSSpPMmjQoNDQUJ9uSpIkSZIklSfp06dPaGw0c0GSJEmSJHVNMukkk4ZevarSTUmSJEmSpPIk1dXVYdJJJkw3JUmSJEmSypNUV1eFSSedNN2UJEmSJEkqT8KVIvr27ZNuSpIkSZIklSeprR2W3pUkSZIkSSpfEi9D2dSUblaO5ubmcPnll8fbf//733DiiSeGYcMMhEiSJEmSVGmSqmJCTz7drByFQiFss8024Ysvvgi33npr2HfffUPv3r3TRyVJklQJvvzyy3DssceGH374Id0jSRofJc1NzRUZXEBVVVU4+uijwyWXXBImmGCCdG/HGhoawkknnRQzHrLsBzIhWkNF+PXXX6dbUs8xNo/tI488Mlx22WXp1sjIOHr//fdDY2Nj/E4bb7xxePvtt+NjfD8boxofcMxz7Hu8qyeivXXLLbeEN998M90j9Qycs3fYYYfwzjvvhNVWWy3ePI9LbUsam5pCY3PlTYsYOnRoOPXUU8PCCy8c5p9//rD22muHJ598ss0gQR5BiX322SdmPJD5QAYEmRAo7QRdc8014Ywzzgj19fXpHql74FjmliGoxsjR4YcfHstPpRzbb731Vthvv/3iyFYe34vvx/eUxpQXX3wxbLDBBrEeoT455ZRTwuDBg9NHJY0Os802W5hqqqnC3HPPne6ReoYpppgiLLfccuGhhx4KSyyxRJh++ulju0ZS65Km5qZQabEFOkmnnXZa+Pbbb8P//ve/8Oqrr4Yjjjgidpxef/319FntI9OBjAcyHwg2tGX//fcPZ511Vqiurk73SN0PWQFXXHFF+Oqrr2LAoU+fPhVzbC+66KLh3nvvDTPNNFO6ZwS+F9+P7ymNCR9++GE45phj4jFGPUKA+pdffol1CfWMpI4RrL7jjjvCkCFD0j1/RDuLq48Vi8V0j9RzEDyjTzL11FOneyS1JSERoGn4/yoJKdSMNjHaOemkk8bKatlllw1LLrlk7KSAyo4RqAUXXDDezjnnnJbG4meffRa22mqrOFK1+OKLhxtvvDF8//33MZXpzjvvjM8lxYmKkiyGbPSXnyeccELYfvvt42vXW2+98O6778bHwHdiH4+tsMIKsaEqjWtk81x55ZXxeGQ6UDaFKH9sUzZ4DuWB45djnIrygw8+CBtttFFLVsEzzzwT1llnnfDdd9/F7UceeSTsuOOOsazkyxzvceihh4ZBgwbF5+Gbb75ptey0lw7O92trOoU0qjiu+/fvHxZaaKFYj/Tr1y8ez7///nsMNuSPfabv7L777uG+++6L2/l6JH++53jmdeeff34sT52pf0oz7nguWTu77LJL+O233+Lj999/f/yc0vIjjQ0ck0xr4JYdy5mXXnop1i2ffvppumfE82+++ebw888/x23aahNOOGG8L/U0U045ZXjggQdikCGPthH9Cc7bWVsmv+/RRx+N+0B7h31Z/8P2j3qqJBQKwxs2I6YMVAoCAZNPPnlMRcowrYGOPynfNMTOPffc2DF6/PHHY2Pw6aefDg8++GCora2N0ylopNF4vPTSS8O//vWv2PHhcRptBC1Yh6Fv377pu/+/p556KmZJvPDCC/EkQMo2n8eIMFkQe+yxR3xfvsfJJ5/c0gmTxhVS9e655554PFJuWsPxzDQhGo7cJ4uArAHSWCeaaKKWRiOPMZXo448/jtvPPvtsDOxRVsiMyMocHS2CE3ScMm2VHWlcmWuuuWLQgEZctu7HnHPOGf75z3/GY5Tj/7XXXovPZf0POkoLLLBA/HnAAQeElVdeObzyyisx04FsOuoBEJAgWPHEE0/EckH54/3bqn/yGXdNTU3hqquuCu+9914MMFD+ePzMM88M5513XnwdAT7ehwaoNDbcdttt8Tjndu2116Z7R5h99tljWXnsscfSPSMGgQiqMQ9d6unmmWee2LZZaaWV0j1/RLuIc/b1118fp1HQ16DfAQZXnn/++Xhf6umSpEB8obKCCx999FF6r3U0/Cjke+65Z2yYTTvttGGNNdaIBZsGHyO3pMPS8acBSXSdRmZnMMI6xxxzxCtTkOlAY5IRWypWKlz28RnM3eU5P/30U/pKaeyjHNx+++1xRLY9BAc4jmkIUt4JAnDLRnVffvnlOJpL8OCvf/1rjLZTSX7++efxWMfWW28dR2spc9yoPLMgBNoqO9K4QgorgeQZZ5wxZhMstthiLWsu9OrVK3bimXrHKCyjswTdONeTnVBTUxM23XTTmO5N1txkk00WywdmmGGGsMkmm8RjnWAFc3AJinem/qGxSTDiuOOOi+UIPM7zyILgPQjoUR5dG0JjA+d6zuUEjk8//fR4fDJ9KEM5YmoRmW0cl9k+RnMJOBBEZjCI+kQan9C2oo6hbQTO2ZQlBjJB0DofJOZ5bQ1uSj1FUkgKobJCCyPmNrWHkR8quO222y423rgRQadxxyJxzLEl4LDFFluEpZZaKs4VpME2Knj9c889F1ZfffX4eXSe6HhJ4xLHOZ0loukc922NdDIay/Ouu+662FEiNZx0bAINpG6zwjc3OkuM1nJsZyOxs8wyS3wP7vMZ2bQIRlmlSjfJJJOEgw8+OI4akbnDsc2UHjIaCKz9+OOPMRDG+X2ttdaKwQSCDZQHOvkc65QZpsV1dM7nte3VP2TQ0RkrDQbyOM/LPo/XZp04aUwjCMygDuf8mWeeOQbIOFbJPrvqqqtiOjjZOrSvsgWCmQbBwtlkvRlElkZgwAf5zGuwTQYddVF2tSypp0qS4Z2LpJikm5WBxiCjPvk52kTGjzrqqJj6zaJBPIfUozfeeKPlRgoqo011dXVh7733jo040rZvuummmN49KkhbZSoGN+4//PDDf1igThrbpptuujjPdcstt4wjsTfccEOrUxFo/JFVQEORTtLyyy8fpxmxn1FTOlP/+c9/wiKLLBJmnXXW2LhkhJX3n3jiiePjpIUzektZoryR8idVsrPPPjsetyCQRuCaqW10nAYOHBizFBiBZS0fOvME4UCQgIVICTjk65htt902Pt4Wpl20V//wWccff3xYZZVV4rQkyhWybAbKL5/D67KsBmlM41gju2fnnXeOgS2OYVBOyGQ48MADYzlipXyCChkC00yZAO0yyo00PmPtHAYfS9GfOfHEE2N5YoqF1JMlTU10RCord2HeeeeNI0X/+Mc/wq+//hobbMznJm11/fXXjxUhozsshMIUCRpoNMpooNFZomFHg47XtZaxQCOy3LngjAizuj2pTLwvDUcyJaRKQMYB64CwYClrMJTieN1pp51iih6drPxUKIIHBBGYVkRWAkEKggxXX311HHnluRzzLN7IcykHjPQy31yqZBy/rMnDsc0xTP3AlB+upsKNzhDZCqzBwIht1nGiw0R6K+uUUL9Qz7AmAuuRtKej+oeyxD6mVJA5RLCPuoiyxfchqMd7ELw2c0FjC+WAaXLUE5QFtqeZZpq47gj7OB4JSjM1Iqs7OG4pVxzHDOoQeGaAp3TEVuqJOM9nCzNmssWBCcJJ47NkxHUoK2vRNSq2Qw45JDb0SNEmdZWGHSM+RPx4/KCDDoqjTjzOnHAqPn7SOGPhxbvuuiu+jnngf/7zn2MjE6zNQGr4rrvuGhtxnUWEfsCAAfF66YxosZI38wtJrZUqAanYrEPCqt6kdOcRSaesEJyjXNDBIj2PDg2NRcoHnStGr0CQgXnl2TXLCTiQAssIL+WM+wQkKEPZ6KtUaTiumQ5E/cFxzzYpqYwgUVeAbAWCCZSPrONEhgGLLTIKxfFOvcFiqXS42tNR/ZMhSE1HjXUWKKsEOPjMFVdcMS4GSVYFZZOpSNKYRBCNdG0WciSrhzV3WJ+E7FACYbTDCBhQB9CR4vjm+cwpp01GpgNtMml8wLmb9aZawyLXtJ3aW0+BoASDo9wYDJJ6osKaqy7bTIPq3gdGjELSqJEkSVLPR6eIaTpMRyVwTOZaFmgrlX8uU+OyBX8lSeOv/IK+hXVWX765tq4+PPjIM3GHwQVJkiRJktSRfHCB9RxDran9kiRJkiSpi0ZcJiKuuyBJkiRJklS+pKmxIVS1ckUFSZIkSZKkzkjqamtDY5OZC5IkSZIkqWuSYrE6VFdVp5uSJEmSJEnlSRobm0JTc7olSZIkSZJUpmRYbW2ob2hINyVJkiRJksoTgwt1dfXppiRJkiRJUnnitIhQGHFFSkmSJEmSpHIlcbmFQrwvSZIkSZJUtqShoSnU1bnmgiRJkiRJ6pokqSoO/4/TIiRJkiRJUtckrLdQW1eXbkqSJEmSJJUn6devX+jVq3e6KUmSJEmSVJ6kEAohKRbTTUmSJEmSpPIktXW1ob6+Pt2UJEmSJEkqT0JgoaGhMd2UJEmSJEkqT1IsVoeqoleLkCRJkiRJXZNUV1WFquqadFOSJEmSJKk8SXNzUygmhXRTkiRJkiSpPEljU1MIzemWJEmKPvzww7D++uuHN998M90j9Uy//fZbvL3//vvx5+jW3NwcXnrppfDwww/H7TfeeCOccsopYciQIXFbktQzjFhswcyF6MgjjwyXXXZZuiVVtjFxvH799dfhhx9+SLfaRkPx8ssvj7f//ve/4aSTTgoNDQ3po1L3MGzYsNiZamwcsajx0KFDw1FHHRUWXnjhcPHFF8eO0IYbbhjmnXfe+PjYUFoGBw0aFA466KCw8cYbh88//zzdK40+dXV14YQTTgjHH398/Pnyyy+nj4w+X331VTyOP/nkk7h9ww03hFtvvTV8+umncVuS1DMkJC0Ukspa0PHtt98Oiy++eJh//vnjbZlllglnn312bPhJKg/liY5JR0EDrhxzxhlnhGuuuSbd07ZCoRC22Wab8MUXX8QG4j777BOqqqrSR6VxjxHRHXbYoaUeKb09+uij4a233gr77bdf+PLLL2Nw7Nprrw0//fRT7Pg88MADoV+/fmGrrbaKx/uoIpCx2267tRoQPO+88+JjAwcOHKkMZt+J77vLLruE888/P74P+P78fo78alTV1NSEY489NgYWCBjT5iKAPDpNOOGEYaqppkq3Qph11lnDPPPME2aeeeZ0jySpJ0iKxWS0VyKjw8QTTxxuvPHGmDp31113hW+//TYcfPDBLQ0rSaNXdXV1OOuss8L++++f7mkfwYSjjz46XHLJJWGCCSZI90qVoW/fvrGjRB3y3HPPhcUWWyx2ztnmttJKK4VFF1003HvvvWGmmWaKx/POO+8cLrroojDnnHPGoBmBhdEVNOvdu3dYddVVw//+97+YjZD55ZdfwiOPPBL+8pe/hP79+49UBvlsgg7bbbddWGONNcLpp58e30ca3SgvHFsPPfRQzDBobzCHNiPB6PYQ9CKgTcAMHNuUswz1TVJhA1uSpFGXNNQ3hMbGpnSzMk022WThkEMOCd98802cs4cff/wxVoCM6Cy44ILhnHPOaUnLJl2cCPz2228fH19vvfXCu+++Gx/jOVdeeWVLZgTPIXBRiuevs8464f7776/I4IuUR0OQ+auUBY7rQw89NHZgGCXdbLPNwnvvvRcGDBgQOzFMYWCkNPPUU0/FcsDz81MtSstK9p5oq/xlo8WMqmZ4P95XqjSlWT0vvvhirC9K6w2O5y233DLWKxzvlAmC31ndwOvWXnvtljqFYEBrGQqMCFOGPvroo3TPiO9AJ2uJJZaI250pgzxn7733jp+74oorxveQRhXH5b/+9a+W83xrOOYJ2p155pnpnhFTd66//vo4+MMxS6bpkksuGescjnkyccj+mX322dNXhDDjjDOm96TugXpitdVWi+dibvnMsfxjpRllnK+z13BrrW6QepJkaO2w0NhY+XOlCTDMNddcsbFH5XXaaafFlNUXXngh3HnnneHBBx8MTzzxRPrsER2mI444Ij5OYaZyo1JkmxGpW265Jd4nks5IEe+ZIYiRNd4YLRodKbHSmHTFFVeEDz74IDz++OPhySefjAEzOj877bRT/MlILPPHV1555Xh7/vnnw++//x5fy2toCJZmH9x2222xrHB79tln4wjU1VdfHR+79NJLQ69evWIZIrOI96YMSt0VizcefvjhYY899givvPJK2HzzzWMwIetoMYWCNG4C3Mcdd1y46qqrwvfffx+nUfC8rbfeOrz66qtxmgVlsTXTTjttWGCBBcJjjz0Wt6mTuE8GxaSTThr35bVVBk888cSYhUE2Bq/ne0mjgvP3X//61zD11FP/oc3DmiSsTUI7ifufffZZXP+jtrY2Pk6Qi+ORaXJ0sqgTCMYxtYhyQbYOna1ZZpklPl/qbjiuOabpG2TZb8stt1zYc88947FNPwS0hdhPsC0bbGEKUPYasuhooxlgUE/GnIjQlC5m1R2wKFCxWIyBA26k8REBn2+++cLHH3+cPivE0ag55pgjPk40kdcxukvqHz/feeedWIFm78N7gg7XMcccE7MWDCyou6ABR+Nuookmijcqt3x5yGNxOtKt6UyRkv3666/H0aU8ygiNTVKyKV8E8jbddNMYlKDCZNpS1sCcbrrp4rxwRlCl7urpp5+OgWimLlA+qDcYic0WUVxkkUXCmmuuGR+jU9+nT58YWMjqkrXWWivWI9Q7BPNakz2PQDhlj+AEwQrqm9K6pqMyKI0uHMcszEvgiik5k0wySfrICAS2yHYjuMDxTzYcr8kCb3SeaGsRXCM4cd1118V6hW0CYjzOug48xnGMKaecMk6VkLoDggcEnJlOl9liiy3iMcyipPxkXRyyQ5deeunw2muvxeeQ5cMgT4Y+CFO8edzzuHqqpGp4Y6gxN2pf6ejI0AjjUkk0umgMMhLEvNnO4Lmkj1P5MVq74447xvfKGnY05izw6m4YQSIolk2LyE97KMXCWhz7RNBZuZtAwZ/+9Kf00REYUaUhedhhh8X340YmDxkRdHqIxpMGvtdee8VR1wsvvPAPnSOpO2EOOed/rhTB8U5KN9OJfv755/QZraOcUIbI5OkM3pvnMpWBVfkJUsw222zpo/+vozIojS4EAMhCI6BG4IC6galuZHjSXjrwwANjMPnmm2+OWaCMupKFkwUKCH4xFYjgBNN4CJixeCPTWe+555743Ntvvz1OufDYVXdEgCAfJACBAgJmYICTjE5+5pHpQHsp36+YYoopDKypR0sKodByGa5KRpScKRFMjcjmnDLCRPoqqUbMj+0MKjZGlkhpJZVv+eWXjymtWYW3wQYbxNW6aWSOicsxSaMbHRCmCTF1iBEmygOp2e0hU4GyQ8NvhRVWiJVkHoECRqiYO5ul83G77777Yvo2I7obbbRRTHslDZDRWxqeUnfFAnMEzBhxzR/zZAG1h0ABgQnKYWcQ3Ft22WXjwnmUHbIWWlsQtb0ySFmXRheu2EAggRTvbM0Q0rpPPvnkmJVG0IE1QQgqnHrqqTErjufkFxcl05N2FMEFAmKs30AWBFN2CFQwgkvWzVJLLRWfT5aPAWl1FwSDWfuGspCt0UPAIFuzjeOcfgM/yUjLggcEH+hn5C+5yhQ7lLa7pJ4iaWhqCE3Nlb2gI1Ma/v73v4dpppkmjpLSkGOkltEiEHTobCCA+alEH7mWOBVbaeXGwlqcDHbddde48B3rL0iVjOAgATfKAx0kykt+/RFQXvKRczIV6AxRGZLiXYrRVDpVNCYZseIz6AiR8cM10SkbdHoIMmRTisDryC6i48T7812YbytVOhqOpHFznGfzyrk6w6+//po+o3VMgaBTdffdd8fXMTedjIf2EBhn3i2fR8OzNe2VQe5j8ODBsTxKo4rRVNZcIMBAejeBLDIQ+Hn88ceHv/3tb3FhU7bJQlhooYXSV46ogzj+N9xww5gWznNYd4HMUIITbJNdytSjueeeO76GcnPuuefawVK38Oabb8bpDATZdt999xhgIFhG1k/p5VRpVxGE4Ngm+EB7LHsOr2PNHB6XeqqksaEysxZo0JGeRyroJptsEufsZZfhYj7gvvvuG0drSWFlQcYZZpghNrQ6QoFmQbv1118/Vo5UlpwwaMjl0eDjcdK9OzsiJY0LjJzus88+sfFGeeA+HXw6PBy7VGrc1l133dihAZUeZYEUvrZW7eYyfMwxZ/0SygKdHEZc+bwDDjggfPnll7FDRuYDad00LAnW0TAlk4HvQiXM3Fqp0tHpodFHh4fjfZttton1D2uYtIdMnmOPPTbccMMN8XV0xLJ08bZQ5gjwUUaytNrWtFUGCeiRxUd5Y8S4o2CG1BVMzSHDjfV5aAtxlSDqFbI7CRRQD5BFuvrqq8eAA5dTlXoi2jGc22k3saAvWW70HbjlA2RkOBBwyK7+Q51CkJipqNQnAwYMiGUmv3aD1NMU/jT7jM3FpCq8896IS2NRKCRJUucQxGMKA8gQYvSXwAAZClJ3xSAPUxyYysCVIHbeeecY0GJ9HwLHpH7TeWJwhvUVuPqWJGn8k19HpDDXnLM2D/8R3nn3w7jD4IIkSZ3DgsCMXjFXndEpUmLPPPPMcNFFF410Xf9RQdYeC0uyPlB+GpIkSdK4NlJwYZ65ZiPzLbxtcEGSpLKxODCpslx9hfRZpkl0tBBkOZiny1pDrLovSZJUSUYKLsw7z2zNTU0hvP2OwQVJkiRJktQ5+eBCvBRl6RUTJEmSJEmSOitpDs2EF9JNSZIkSZKk8iSFQhKSxOCCJEmSJEnqmqS6qipUFUdcQkuSJEmSJKlcSUiKoZAk6aYkSZIkSVJ54oKOwQUdJUmSJElSFyXNzc0hDP+/JEmSJElSVyTNTU2hoaE+3ZQkSZIkSSpPUigWApejlCRJkiRJ6oqkKklCUnBBR0mSJEmS1DUJSzl6KUpJkiRJktRVCes5VlUV001JkiRJkqTyJLW1w0JjQ0O6KUmSJEmSVJ4kNDeHpqamdFOSJEmSJKk8SVIoBAIMkiRJkiRJXZE0NzeFxqbGdFOSJEmSJKk8CVMiGhsNLkiSJEmSpK5Jik6LkCRJkiRJoyCpqakJxaSQbkqSJEmjbtiwYeGWW24JX3zxRbonhIaGhvD111+HZge2JKnHSaqKVSFJiummOuvRRx8NO+ywQxgyZEi6p31UojfccEO477770j2Vrb3f74cffggbb7xxePvtt9M9o0f2mQMHDgxnnXVWeO2119JH1JojjzwyXHbZZfE+/yY01saWsf150pgwePDg8PHHH8fz8zfffBNvbSn3nC8phJtuuimceuqpsV7P3HrrreEvf/nLaG9DSJLGvaSxsSE0NVVW9JgKZ/HFFw/zzz9/vC2zzDLh7LPPDkOHDk2f0XW8Nx1jOkdjEw3Txx9/PCy//PI98vcbnYrFYthiiy3i3+TDDz9M96o911xzTTjjjDNCfX19uqd1o+v46OznSeMKQQCCAdl5tvTGOfmpp54Khx56aPjtt9/CpZdeGm+SRp8ZZ5wxvff/Ntpoo/Dvf/87zDPPPOkeSVJPkZCy1tjQkG5WjoknnjjceOON4Y033gh33XVX+Pbbb8PBBx8cU+y6m59//jlcccUVYa+99goTTDBB3NeTfr8xYZpppomd4EsuuSSmUKp9+++/f8z2qK6uTveMWWP786Ry9e3bN1x++eXxHPvcc8+FxRZbLJx//vlxm9tKK60UVl999XDzzTfH8/HRRx8db5JGnwknnDCWxQxZQg899FA477zzwgcffJDulST1FAlXimBNx0o22WSThUMOOSSmrL700ktxH6P8p5xySlhwwQXj7Zxzzomd0Gy0ilGpDKnjWQr5ZpttFt57770wYMCA+Bwquvvvvz+ssMIKcTRrvfXWC++++276yhCefPLJsMoqq7Q89uabb6aPhFBbWxs7WHw+mQgEC1qbQ0h6f//+/cNss82W7hlZd//9Xnzxxfha3oPP4T2Rfdd//OMfLY9vv/32MZACfsdjjjmm5XX33HNP3J9ZeOGFw2effRY+//zzdI/akh0Dmfy/SfZv3trxUZrJkD++GNXdeuutw++//x4f++mnn2JGCcdz/vN4Lq/hteC9eE/eW6pU7R372X2CDUsttVQ83vMGDRoUDjzwwHj+IiDM9uGHH95yvibrKgsUt3Uul3oCpseVTvd8+umnwyuvvBLv9+7dO7C2V+b1118PJ5xwQnj11VfD3//+91h2pO6AuoJ6gZ9ttXNoF1GHgJ9sZ/UJ7TFutKdtH6knS5JiMVR1g9FHOuBzzTVX7CTRwT333HNj1JupBlRsVGYPPvhg+uzW7bTTTrGDPOecc4aHH344jlx98skncTSL96OyoyNGxUeF984774STTz45HH/88bGi3H333cOxxx4bO1l46623YlofAYHjjjsuXHXVVeH777+Pj+U9++yzsVHZq1evdM8fddff76uvvooN8D322CO+Pw1s3vO7775LnxHC888/HzMQCDrwu2VBhOuuuy7+jvxe//3vf0OfPn3i/szkk08e/y58T3UeU0n4d+DfhH/XzTffPP6bE1goPT7aw789wcdsasr7778fj+G2gmRST0Ngk/MUQbVMXV1dOPPMM2MWGuWsqqoqBhO4rDPn6UceeSQGaW+//fYun8ulSkRQjKlwHNccy9QJF198ccy+ZDACdKSYXsTjPG+KKaaImQtZsI2ycdppp4UHHngglh2yiKRKx3HNIOCXX36Z7glxOt2+++7bEqDOgtBZ24qfHPerrrpq2G677Vqy5q688sr4OgMM6qmSYlIMSVXbnd5KQ2eWaQYvvPBC2HPPPcNEE00Upp122rDGGmu0jJiXg84SFSCFnBEmRtbpjNPR5TPmm2++sPTSS8dKcOWVVw4HHHBAvI9FFlkkrLnmmnGblFtek3XMM7wnC4bNMsss6Z72dbffb6qppgrXXnttWG211eJaCWQbMFKRfx6fOfXUU8ffhQwF/h58F4IuW221VXyM92Y0PY/vPskkk7RkOqhz6LwQHadC49+OfxsquHIzQPjbc2xkxx1R+CWXXLJlao/U05G5M+uss7akdXMuvfrqq+N5mmlsnOtoYNJg3GabbUK/fv3CpJNOGkerOLeOznO5NC5x7JPJyLFLtsL1118fj3fWkaLDlWUgUJcTwKZ+5/inDioUCi0ZcLQrDjvssFgv/frrr06NULfAIBnnb87ttFW5cX+JJZaIA3EEH8jqpE2bx6Af7Weel2HghkGfZ555Jt0j9SxJc6Eq1PTpl25Wvummmy6OEFFREQnM0oxINWVUnU5rOXg/Ott0yKgkN9xww/DRRx/FjvKnn37aUjGChiSdLRqJnUWFTLQ/67B3pLv9frwP85mZu8z3pMHQmU5s9nehcdKemWeeOQYj1HmMLDEySqCHfxMqQaZC0NAr14orrhhHmuhMkQXDtjS+KD1vE0SgIZnfTyCVlfCTJEn3hBiQoOyNznO5NDaReUDG22233Rb+85//xIxE9jFKyxpSlAWyGTnGGTzhJ2hPMKBAEJqpngTm6JQRlLv77rvjJSnpWDGqS9khs0HqLjhuswyELEOBNnWG9lK2YDs/81ON88gAtW2rniqp6dsv1NVW/iKCVEJMGWDqAI04RlWJnGeFnBupeETNy0EqH6n3F1xwQZynvuuuu8YpAHweHVs6wHSEQYr4L7/8UtZ8WSpaGqIdvaa7/n7MnyTtlxv3SbefaaaZ0kfblv1duBRcewiA0FBX57HI4tprrx3/PfLHz3LLLZc+o/OyKRA0Kmkk+m+h8RnZCFxWjwVn6WBx7uT8ypo6WecKjGJlAYfRdS6XxhSOz3yGIO0ApjvcdNNNcV0RpjVyKW3aDUyj5P7cc88dAw+sPUJmHGUgQzYiGTogA5GsHoJyBBh4/kUXXRRHgtddd9046CF1B2TscG7PcJ99WTuJcz7n9nvvvTee55n+cPrpp8eykV/UFAQkbE+pp0oYs64d/P/XH65EjJqy8A8NukUXXTSOrBMVZH4To7F0hqnsGK2lwcZoPasRs5/X/u9//0vfaQQ63NkJgg4982n5SUOQkfhMFnVk3jodb96fzvmPP/6YPqNjfB9OIIz6tqU7/358Dp1ZTpy8x2OPPdbquhOl+D1YKI0pFTRqGMUjMJHH70Ejh4aKOo9/V9a/4O/JvwmLYlLBkYKK/PFBx4i/Petq8FwCUPlIO6NPTIVgZW9+kt1Sasopp4xpsVSWHJPMOWfESqpkHR37reEcyvlul112iec6zsPZ+ZqOGO+XzcOl49XeuVyqBNQHpVMTuHoK64kwUECaN8cyweqXX345To8jE5K1SAgQPPHEE3HNkXzdQPYiCwITWAMZkUyTYM2fLMBG+WF6hNPs1B1k0xoIxGWy+zxGG5gMNdpZ2RoMGTJ68yhD//znP2O5kHqipG5YZaZmUkBZgI6G2SabbBI76HSQqMAY8T7ooIPifH/WCSD9m4YhPxkRp+HHIoBss0ghnZ8Mo/XciJgzd3CBBRaIHerddtst3mcKARUeDU8i81SwzK1daKGFYiSfqH25nV060czFohLP9JTfj44safcbbLBBDIwQxCBKmy3e1J4tt9wy/v6ceFmLgRWl89Mk+Btx43uq8/h7nXjiiTGbhH9XRo34O9PRKT0+OMaYD/63v/0tPpfG3/TTT5++0wj82/AaggutmWOOOWKaK/PTOQborDHvXKpknTn228I5kgVTL7zwwhhM5dKsTEfiXE+qLOWNTll753KpEjDgwNSdW265pWWqDouWzjjjjGHHHXeMgYcsw5DjOcvUAe0RAhF0rAia0ZZgjjkLR1MWmA4h9QQc45zvaTdxfufGffZlWQmc+2nHZ217frLNfgZ0sitGUE7IamDtBaknKiy2wDzN9fUN4dW334s7SOvR6EUHmVVm99tvP08mZSAVn1Hwk046KTZqVPkYmSWAxbXNmXebz5SRejKyH8hAY7SXY99zlroL6lnaJ/mpPWBAgvq3M1MdGVBgJPeOO+6InSoGTSwDkjR+yE+NKyw2/zzNoZCEF14bcTkggwtjBpX3nXfeGUeUsyin2kZaPZe4ZFSRERR1D6QDEpVn8S8yagwuaHzClAgyw8hkIKNH6i6YysA0HwZDuHQ22TxkKUiS1JF8cCEZVlcbuBylxizSokgrZ56h2sfoN/M599prLwML3QzTWlhPY+ONNw4ffvhhulfq+Uh7ZQrEDDPM4EJd6nayaRBcjnqVVVYxsCBJ6pLCHLPM0Ny3zwThlbfejjvMXJAkSZIkSR0ZKXOhvq4uDBv2/5dWkSRJkiRJKkfC1QkaGkdexEeSJEmSJKmzEhYXrKmpTjclSZIkSZLKk3D5rJqamnRTkiRJkiSpPMnQYUND8/D/SZIkSZIkdUUSmpsDizpKkiRJkiR1RVLVqw//TTclSZIkSZLKk/Tu2y/06TdBuilJkiRJklSeZNAvP4Zff/wu3ZQkSZIkSSpP0m+CvqF3L68WIUmSJEmSuibp3at36Nu3b7opSZIkSZJUniQphNCrd690U5IkSZIkqTxJUiyGpJCkm5IkSZIkSeVJGhsaQn19XbopSZIkSZJUnqS2tjY0Njamm5IkSZIkSeVJmsPw/zU3pZuSJEmSJEnlSaoS11yQJEmSpPa8/fbbYZ999glDhgxJ90jKi3GFYrGYbkqSJEmSfvjhh7DxxhvHoAJmnnnm8Kc//Snel/RHSXPz8P9wPUpJkiRpDGCkd4cddgiPPvpoumeEtvZLlWCKKaYIc845Z9hss83C/PPPH5ZccsnQt2/feJP0R0lDY31obBr/1lwYNmxYeP/9913MUpLGU0ceeWRYaqmlwiuvvJLu+X+MUtGIPOqoo2J9MS41NDSEQw45JDz11FPpHqn7oTO23HLLhb333jt20rIb5ezNN98MU045ZfpMqbKceOKJ4Y033mi57bTTTukjkkoltcPqQn1dz78UJQ1F0ppIb8Jbb70V9ttvv/Dll1/GbUlSz8J5f/HFFx+pI8ONoAKOO+64sPbaa4frr78+duDz5plnnnDllVeG5557Lrz33nvp3nGDqzpNMskk8TtJo1tp2ncpMgpKy1DprbWsg9LXsU2njM4Z5WqxxRYL559/ftx+4YUXPL5V0bL6JKs/QNlZbbXVRjrOsxvZOPl1GVp7vdQTJXW1w4Y3qurTzfHHoosuGu69994w00wzpXskST3NxBNPHG688caRRp0YhQLrDa2//vrh1VdfDZ9//nnclzf77LOHhRdeONYV41K/fv3C4YcfHgMM0thEQIDy8vDDD8cbAQF+UqZWXnnlGCTgPs/JByfoQGWvo8ytt9564aOPPoqP8bwVV1wxvPjiiy1ZDK0FJ6RKQRDh2muvDY899lhL/QEGKpdYYomR6hdulIv+/fuHTz/9ND6PIMP//ve/P7xe6omSqqqqkFTggo5UOlRGVDr8fPfdd9NH2n6MkSdGmrKRqu233z58++234bLLLotzpRh9GjBgQKzEqNzymQxSd5LNUT355JNbygLH+7PPPhu22mqrP5SN5ubmcP/994cVVlihzTLFCG72Ptttt10sN4888kjYYIMNwi+//BKfR6YPnTHKz9ChQ8Mpp5wSFlxwwfi6Qw89NAwaNCg+jzLG63bbbbew+uqrW85UsSabbLJQX18fG4OlqB+nn3768Mwzz4Sffvop3TuioUk5YdQ1q29OOumkWAd98MEHYaONNmrJimNKxe677x7uu++++Lr8CHHpNqnhq666anjooYfiNu93zjnnxDLG9I2LLrrIVco1Rvz222+xnVQ62vrggw/GQAHzzttCxgEdrO+//z5uczzT3rruuutaXkeHiqwFHtt3331jWy3riFEfZYEHqRJxrn7ggQdi+6e0PXPnnXfGeiA7j4OgwjvvvJNujdi+6qqrWn291NMk/fr1Db179Uo3K8OHH34YR2n22GOPOBd28803DyeccELsuLT3GGl1t956a7jlllvifbISzjrrrNhRIrLOgixE0VdaaaX0k6TujQ4PKd1PPvlkDCAce+yx4fjjj49lg1GlSy65JHZQXn/99XDmmWeG8847L47SrrPOOuHUU0+NjUjegzK09dZbx8eYLkQHCQsssEBIkqQlEEFDkM4YqyVfccUV8XmPP/54/HwCeZSzzMcffxw7SjfccEOYdNJJ071SZXnttdfCjz/+GBuOpZ3233//PTz99NPhk08+iWUo7+uvvw69e/eOgQcalwTUqHdmnHHGMNVUU8X3zZ73888/x7LUnm+++SYcc8wxMUhHucFtt90W66y77rorjnrRQB04cGB8TBpdCAAQCKCNdPDBB7csVEd54PgtF2WC92otIMFjtNvyUyCywINUqTheyWAj2JxHf4J2UTath0EZgs0E0ChT2XHe1uulnijp3btPqKmqTjcrA405CicNLEaOmM/E6A9pq+09RoXIaCrRwkKhEI444oh481Kb6qn+/Oc/x5TpiSaaKC6Utcgii4RZZ501lg3Suck4qKurC3PNNVe4+eab4wgo5WHZZZeNHafBgwe3lJe11lorPjbHHHPEhiEICjCFiIqT4AULyvFayhrBCEZu+ezs8wkoZBZaaKEYxOA9LIMaV3799deWVb655UeYqDsIDJDtQ5AtC6plaDSS1UAmApkH+XUZJpxwwlgWKGsEE6abbrqYrdCrV6943BMM4PkvvfRSDHTznLZQFgks8LossMBryUTaYostYsCCck4ZlcYEygHZBpQV2lWMrnKen3baaVumLpD5mV+nikABizHyGMG5bEFG6gHqodbw2GyzzZZuSd3PpZdeOtK6CVlAgRuoN8j4yQfXeD6vk8YHSWhuih2LSkJjjoJJ5yir0Kj0GP1p7zFGhkjTJlpIhbfjjjvGVL9K+/2kMYEMg7bQub/jjjtiZ4hyQ4eFDg3oxDAvnU5RKcoOc2Off/75GMDjtvTSS8fHWGSODlE2LYKsiLz2vo80tpSuuZCNMOGLL76IGQNMTaD+YD5shmAa28wx33TTTWM9Q3ZOe7IyRWCNbIivvvoqTrcgKEAQojXUUbvssksMbjCVKKuvCAoSHJxmmmnitjSmEEggeEY54Xide+65W1K3ySrIyk6+00QZoiyxj+ya+eabb6TOVHsBhPzVIlxrQd0N5+nsvMzxS8AsKx9ZBg5ZP0xhywLZPJ/XSeODpInLUA5vRFWS6urqOP+bNNSswHJjZLS9x8haYNT1qquuinPIl19++ZjuzX5pfEaD8J577olTFCgvNCLJNgBBBYJ2+VHZPBqRXLKVkS3SwJkSwXNPO+20OEWC0VXek+kUUnfC2gakqc4wwwwxAEAwIVtbgXTwJ554Iqa9Mgo79dRTx+3OIEuB55MGS8ChvSkRlMPLL7881l0E6LJySJCBgATZRdKYxKJ0ZKtxridbgYXosvUTOoPXk+HQ2jSIUlmwgiAGgTupOyFzZ9ttt40DmyBbh6ydLFiW3RjgJCs0KxM8n9flM3+knioZ3oQJlRVaCDFtlbnfRMPp1Hz22Wfh9NNPj+mt7T1Gw5CoIY1CGmalGQuMtJbOqZXGB6xJ0qdPnzDBBBPEYBvlJxtlpVHJvrvvvjuWqffffz+O0mZYoZ5sBVL6qDBpfPI83pNRYQJ+jNB2tuMlVQKOX45ZpiIQYKNjRbCdVG8QwOb4nnfeeWNQjekKBNioazpCUIBgxT//+c8YjMvWHOFzeK9sgdQMZYq0WRqedL4IMFBeWcSRFcrJmCDIwOgyZc11FzQ6EXxmKkSG++zrLBZjbGsahNRTECigXOSz3/IZPKW3LMsn/7z8PqmnSoZ3wSsuuEBKHg2sc889N6aXbrPNNjESyAhPe49RIbKIHaux8hjpSixORCONBh63ddddNy4+J41P6OgwksoUB64YQeeEckHAjY4PC0GS1UC5YUFI5nfnkRmUBRlAJ4mUP0ZmmaLEfeacE6RoKwNCGhdK11zgxor4LHpKOeCYB8c3ayuQ7UbDMLu6CmsrgEw4pioQzO4MshW4lCV1UhboZkSYeuqvf/1rnKebR+DvuOOOi2s0kH3HtIwtt9wy/OlPf4qvoQxT/gh4cAUJAnzSqGLAhXKQrZcA7rOvs4Mxra2jkJ/6kN2cAqHxAVOKqGO8KoTGV4XlFp23uVBVFR5/9tW4wxERafxDQCCbE06Dcs8994yL3GWLy7388ssxc4ErTjDKKun/ZWWGIJyr3kt/RGYO2Q2WD/Uk2bmfaUEMfBJAI7AGLrHKPml8wOBJJgmMqFRa6oKksYYF5bi0K1diYTSUS0uSnk2mD8hG4PKujOIaWJAklYtOloEF9TS0iS688MI4HTvLzGHaKYEFgmmdzf6RepKEdM3GxqZ0U9L4hilFu+66a7zSCinipH1zFQhSull7YZVVVokLPjKlSJIkSSMQYNhuu+1aMhaYVkqwAQ7IaHxUWG6x+Zvrhnccnnv1nbjDaRGSJEmSJKkjI02LqK2rq7QrUUqSJEmSpG4kYSG3xianRUiSJEmSpK5JGryclSRJkiRJGgVJQ73BBUmSJEmS1HVJU1NDaGgwwCBJkiRJkromSYpVoaGxId2UJEmSJEkqT1JdXT38R2HEliRJkiRJUpmSJq9DKUmSJEmSRkFSN2xoaPKKEZIkSZIkqYuS+vq60NTYlG5KkiRJkiSVJ6muqg7V1VXppiRJkiRJUnmSfhNMEPr165duSpIkSZIklSeprqoKxapiuilJkiRJklSeJCkWQ8FLUUqSJEmSpC5KWG8hSQwuSJIkSZKkrkmGS+9KkiRJkiSVL2lq8jKUkiRJ46MhQ4aEHXbYIcw///zxJ9uj22WXXRbff0x+hiRp3EsaG5tCc3NzuilJkqTxRd++fcPll18e3njjjbDddtuFE088MX1k9Pjhhx/CfffdF2688cb4GdNOO+1o/wxJUmVIGhvqQ5PBBUmSpPHaSiutFH8++uij8efo0r9//zDFFFPE+/vtt1/4+uuvY9BB6m7efvvtsM8++/wh++bII49stdywL8vaae3WlbJ20kknxe8hVaJkfIorUBAXX3zxeAJoaGgIp59+eth+++3Dt99+mz6jdVk6X2dPAGSCPPLII+Gcc84Z5awQTl4HHnhgvI1qGiGvJx1xtdVW6zaV+tlnnx3uvPNOs2vGAo7vrqarUkYoV6PbmHpfjX9qa2vDY489FjbffPPw3XffpXsllaLzf+WVV462dgJBBbIV3nrrrZbtP/3pTwYX1G1k/Qf6Aptttlls4y+55JJxu6M2NQE7MnZau1HW2kLbJwtA2A5Sd5IUioWKu1pEW1G+0T1Pb9iwYeGzzz4bre+JZ599NhxyyCFh3nnnDT/++GM88eRPPlknnxNVZyKPAwcODF988UX8vvkAyej20UcfxWDLggsuGP/eG2ywQXjuuedaOvZ8Zme/8+j4nnzuiiuuGAMMDz30ULpXGf6266233h+CY+ynUy4pxHMwDbgVVlgh3HHHHeHQQw8NU001VfqoNP7K2iKlba0BAwaEF198Mf5cc801//B4/kY7Ibu//PLLj/RY/sYgwd577x3vL7roouH666+PnbQx0ZaRRrd55pknvPDCC60GCB588MGWrJzRJSsXvD/tcDJ9LCvqLpKqIpeiLKablYXCvPHGG7fcaBwWi6Pnu1ZVVYW//e1vMfo466yzpntH3aBBg8L5558fK9xVV1013dt1zIW85JJLwk033RQmnXTSdO/o99VXX4XddtstvPbaa/F702n95ptvwu677x5efvnl9FljV6FQCAsvvHDYaKONwj/+8Y/w888/p48o88knn4RLL700ZuJIGhkB2ZNPPjl2kAj6nnXWWfGcImnktRbyt4cffjjMOeeccY2E+++/PwbnaBO09vjtt9/e8vgTTzwx0vvkb7xmscUWiz95HvdpK7n2grqT/MKk3LoypSHv/9q7CwA3jrMBw3N7d7bDaZi5YWZmaJiZmZomTRtmRqfBhhtq0nAbTsPMzEx/mDm2j36/453rWtbdSWfSnd8nVS2tpNWetLM78803s++9915+73/oiCSYkLIaKKf77bdfePPNN832UY+Qhba2UFt5C/+z6qqrhiOOOKL9RoT98ccfjwV6jz32iCcz7rM8FbgffvghZg2wnGDElltu2WFvO1HA9ByNM9IAecx7V1pppfDII4/krxyCkyLr5PkjjzwyVlxLcRJ9++23Y2WWxnEl0sGK7U7rP/jgg2OvQupZIPPh0UcfjZMt8bn0ArCc5/mbjz766JhxwO2ggw6KQQ688cYb7d/Tn//85/D999/H5aU++OCDmCrMd37qqafGE/6xxx4bJp544pjRwHfFZ/LZ9DZwQCXrg0wH1s3tr3/9a+wl5PusdjvpJUnbSeX/zDPPjL8J3yG9Jxxoid5qaDPOOGN46KGHYmWtI8Xvln/ZJ/Dbb7/FcsVy9rvbbrstLk/4fSk/6flUHvh911577bi/Lr744sOULTJOqJCmfbn4mbyWYBGVSsoa+wHDh1JwhP1nl112aX9f8TcvLaOVDGnSmI3KGAHpu+66K8w777xxn2Tf/OWXX+Jxif2IW0cVxHI9u+l4xr6c9kVu6VxCuTrxxBPjvs1yMiXScY7jaGqI8RxloVi5pJyknmC2lWEclCfObwTYU1l75ZVXwgorrBB7zEqfo0ywfrOXNLqk7FPKBL29lBnO4x9//HH+CqnnYb+mHkS9JAXMzj777PZjb6nSc0S5W8roSecPcExnjpJxxhknPgaZEdShKUe8j6CeVKuyltaW0NrWkj+sLW+99VasFHIjw4CCldCbToN70UUXjY0nZiKmEnbuuefG+0sssUTYYIMN4joqwQmwf//+Ma2PhnWfPn1iRZBGd/L888+HrbfeOswyyyzhhhtuiJ9bikrfhBNOGKaddtp8SeVY/xZbbBHXf8sttwyTMTDFFFPEgxBZF6QVEmDJsiz2xl133XXx+6DRd/vtt8cDHsMpaMzTSNxkk03CBBNMEN555518bUObeeaZY0OV95Kt8Nhjj8VxYlReeS/jlPlMPpvK8QwzzBADLIyhJEjAdv/3v/+NvehTTz11VdtJRgKBjKampvjdU2lmPRx0QQozWRv0PGponGR23nnncMYZZ5RtaPN78/vwG7B/8TvyXdPYueqqq2IgjN+Y326sscbK3xXib7LvvvvG34L3HXXUUeHkk0+OGS748ssvw3TTTRfTzGeddda4LHnppZdiWSJA9MILL4Q111wznHTSSbFBBiqYNPgIiFx66aUxqEE5JXhA0GH88cePvzXPtbT879hEGaXcXX/99fH+9NNPH/epFJiQSpGJxbmDRjz7Io1+ygrHRHpsqSTSg9oV9ksqk/xbxD5IBZPn2CfJtmO/pVwR9KMiSrmkhzeh7JCNxuvnnnvuWDYIxPI6suk4x1DmCLpR5kqP2QSImcyL15Vmx3EO5PPJaJIqQUOGc3KxwUMDhjLSHayP8zr7PMFgzj10NlBOpplmmvxVUs9DXYl9mUwC0OBfffXVY6dnUgwUlBtKQTlIHSfF5en80RnKTzrfEISWalUW0xZqdK48Gp9pMkN6SVPDBjSoKMT0xvfr1y/2UNEgoqeHRjKpsDSC6YmvBI0YKmY0euhxuvLKK8ONN9441MmQ7eBz99xzz/iYzyxFMIL3FCOOlSKYsdtuu3W4fhpdVIRptNOA5wBGj/69994bllxyydhoJONh/vnnj40z3k/WAVkYNDAJBiy44IL52oZG4IIK72qrrRYzJBgiQYCGCgLfCxUOPpPPZjnBBSrnHBAJLFDRnWSSSWIvHIGZaraTyjKTrWHKKaeMFWwOoGR/gEYv2/fRRx+1N1D1PwTRCEiVGx5BkIjfjkYIvweVSBoyNOb57slM4LvlO6ZCmXBi5HcksMT7mLiILBYaTWAfp7eUwA/PF80+++wxiEQ5ojwttdRS4ccff4y9xSDwtvHGG8dyS2ot66LBRfCQ4Bz7E+WHgBL7S8IJnV7h119/PWa0sA9xG1FDpdT7ELAkYMz+y37CsYsMhmJlEJxLUsOqmGmAxsbG0Ldv3/xR17baaqsYhCCYy23ppZceKjuB4zFljv2f88k333wTj48EEdjvOe5RpthOjtkc9xP+HoIjlJttttlmmOw4AtJUPMkokipBA4lOGvZHzvfsP5x/CZx1B8EFJm+kjsCNMjfZZJPlz0o9F/UnAmapHsq+njozE479lQQKOkOZpHMw1ZlQLptBqlVZQ9YQ6rIsf1hbaOBykuNGKmtpDynoEU9aW1tj44pGULEXthJUxnbccceYJbHWWmvFCmDqOS9V2pga0apZPw1FGuY0ImnEU4mmgslBieV8J3wXaZ3F76sUFV6GRFDxJgAw7rjjxh6yjjIGyNxIKbxEb0lp5/snGFGqs+3kgElghfs77LBDTAcmg8FAQmX4bbksEt9t6fAIGiNE2xlqwu9EACEF4vitOjpR8RwNfQIDvI/fi9+bAA9o1HTUqGc5GQ3pvZtvvnkMLnSFfZX1Uskth8YWPc9kXLA97CsEJEobWFJR8fjHvsL9FMxMUmYCmQYcx6644oq4nGMSZYUgQaVYN8ON0rAIMng6koIWHB8pW8V9me3kWJkmn2RfJ3BBeSawkP6mhG09//zzYwq6jTlVg/MtY7oJBpRDZiMBsHROpm7UUWZDsWFEQJj9f3gaWlKtIJuXYDH1j1Sf+uMf/9jl/l2cp4H3UH7SOriVDsujDBGgI3sNlDuubkdHUsqakGpZNri1GWp11gUqhRQybgQMSitTpWg48xpOaoMGDcqXVoYeUXrfaUiTds2VHs4777zY8z88aLxxkKDCmU7MNNz4PCqWHTWkKsX7WQ+RUyqdKRhDDwQ9v3wnfBafCRpw5TBhJFFZrspAUGHdddeNPXi8vtx4su+++y4GIMCBkvcRnOhIZ9vJ59ETRwCJ7AbG0vMvmSuqDEMUyHihV7M4rpVe1zXWWCMOVaDxlG40/FNZKYfnGNJSmrpHo6Yr/L4Mdbj66qvje/iNK2mcsa8SmKKhVQ77MQHGyy+/PAY66JFmH2S5VA77P8eqFExIx16OOeWwn5Itk8oQGW0Eyyo9TrN+hjJwvuJcwv6fJuUqJ20X66cMFwOz3C9mdbFtZNSRXUbQt5hdgf/85z/xNVSApWqRpdZRw4V9inpMahBxbGf4ZznU12iApYaR1JvQCVmsE1VyvC19T/HGEIlyCPiB8ka5o0x5bFdPkbW1tnXY4BzdyCJgrHe6kYZPT2xHaExz6ULSphlGQW8UjdRKkNrE+HJOiFwlAVRMuVWDyD8V09Ro42RNpJIK7k477RQOP/zwmILLXAUMC+CEXQ1SZKkY00NNJJO/mawLsg3o1eXvoAeCnmPSzelx4DtgmAgptqXzOCQcwNjmQw89NGYRsJ2Mm6cnLaVH0oNGw4/viIozlV5600gBY4xlccx/NdvJ98WYaCbyo7c8jbNP2Sd8Dt8flW+jth0jnZrhEcXfmJ5PxpoTyOF7pbeJ34PvlN+Dxgq/Gw0uXpOwHvYH5jigwUTvLfsDl0TtCo0efjt+/7TeSjIXaBgxBp3MBD6bzyQbI2HIEydpetDYL81YUFcIFDCUh3kX2P8JglKhKw63KWK/e/bZZ+Oxk8Y9cx9wDmDIVyX4DPZ/Gl68j6F8pdlEPKbMcSxlKBNBWc4Dqcyxn7Me5otg2FJxSAVBP4YCgvKYgsYch1kv2X5dBeGl7qCxkxpEHKM7CxiTrcZxmrqE1JvQ2UamaLnMWsrIiAwAFMscdR+pp8iaW5pDc96YqzUUYrII0o0JsjoLhNDYIEWJnloasTRg6UGqBOlGzKnAPAs0/gkwULCZv6EaNI7obSo2wqggciUFKo7M8EovMsuYyKvazAUqogxFoLFNKhXfxzHHHBPTZamU0nCkokmwgOEG9OxSaSUzgUm+qDSXM8ccc8RUYOZkuPXWW+N2sm62kaALaLwyXp7vloYfFQcqt3w+lWV6LGhMsqya7fz9738fJ+ajAbr33nvH619zIGXSR/BbcHMccedoVHDS43dI+F3Zj8loIJhFdg7fORVD5jbgPhkrDEVhjoU0TCINkSGbhCEV9JbSwGJOjK4wRIb3E+hjvaTIEmxIPbAdYfspe+w//NbMy1C8TCzbyb5IVg1/C/sVAaoUhJJKcewjsMqlbNln+JfHLC9Kcy6w33HcpJxwnCLIyvCb4rwHnSE7izJI1hXlhvvMO5OOiyDwQCCVwB9zn7APcx6gzHCMZO4btpXzEXPlUIaLCNoxUS9BELJ4CIJw7uOYWfp3SaMDnQB0BnH8ZpiOQxwlacxRt/C8sw2umWTh6ReGpL7TEOjJ6DXiRkWNyhwZDPToMAnLqBj3x2dTcSTIQMXQ3tXhQ8X5nHPOidkXjFsjA0KSeiICsjS47IWSpJ6HTs90qfVyGOZAh06lOCfQcVJtxgND49Zbbz3nM1HNoGMmqVt4nt+3tdVl4ZkXh1yHvqcHF0jzpjHKVRdIt2e8N73xLBtVKfX07DNfAen/HaXfqjIMk6BXkasCcACWpJ7K4IIkSeptisGFrKWtdahJpHo60reZrI7xqAQWuBQlKfijcqw+qbWktzL2vTd9t6Ma391///vfOMa49HrukiRJkqTaUTfvbNO11df3Cc+9OuT69T09c0GSJEmSJI18Q2UutLa0hrbB/0mSJEmSJHVHVl+fhfosyx9KkiRJkiRVJxtrrLHj5bMkSZIkSZK6I+vbtzFeX16SJEmSJKk7svqsPmR1dflDSZIkSZKk6mQEFgwtSJIkSZKk7sra2lrzu5IkSZIkSdXL2tq4DKWXopQkSZIkSd0TgwtmL0iSJEmSpO7KsrosDMlekCRJkiRJql7W0NgQCDBIkiRJkiR1R9bGtSIMLkiSJEmSpG7KWlpbQ6ujIiRJkiRJUjdlAwc2hZbWlvyhJEmSJElSdTICC22mLkiSJEmSpG7KmpuaQnOLmQuSJEmSJKl7soGDBoWBAwfmDyVJkjSm+Oqrr8Iqq6wS5plnnnjjPsu665BDDmlfF/clSWOOrJUJHQffJEmSNGY5/fTTw2abbRZefvnleDvjjDPCGmus0a3AwGuvvRbefPPNcN9994Unn3wyfPrpp+Hiiy/On5XUlV9//TVsv/32lhv1WFljnz6hvqEhf6ikubk5v9f79Oa/TZIkVYaGDAGAmWeeOV8SwpxzzhmefvrpMNNMM8VGDq+pxlRTTRXGGWecMPbYY4f99tsvvPjii1WvQ6o1BM4WWWSR9qyccreuAnJkBFGmOssMSuXmjjvuiK974IEHyn4Wt+6UT2lky/o0NIYsy/KHYy4a3Mcff3xYdtllwwsvvBDOO++8WKArQXSxswPK559/Ho4++ujw/fff50tGLQ48u+++e1h//fXDe++9F4499th4kOwM7+F1H330Ub5EYyL2A05elZYFSVLPQUOGYEA5O+64Y9h2223DnnvuWXEDZoYZZoj/fvDBB/FfHo833njhl19+iY+lnmyJJZaIGTkpy6d4u+aaa2JQbXikQMKmm24aM4BWXHHF8O6778b177PPPvFW/MxLLrkklmGpltQtPM/v2xgV8ewrb8UFP/30U/x3dKLhywltwIAB+ZIh1llnnXDcccflj0asjz/+OAYUdtttt3DUUUeFb7/9NpxzzjlhiimmyF/RMYILNNrLbRsnZCKQ6623XhzHyGtJQSx11llnheWXXz5/NGI999xz4f777w/rrrtu2HfffcPUU08d+vfv3+UB6ZVXXgmnnXZaOPXUU8NEE02UL9WYhP2XiiXlcWTtn5KkUS8d35955pn4eNxxxw0///xzvF/OLLPMEt555538UdcmnHDCoTpVaBgRsJB6ItomtBNOPPHEsvVnnv/Pf/4TDj744Pi4o/p+RzoqHx21ifr16xcuu+yymGkkjW4EkZO6eWedvi3UZeHFN96LC2oluLD33nvHcX89odB0Fly49tprw+uvvx4zGxoaGuJrH3nkkRi4qPVoY1tbW9zO+vr6mPmgMY/BBUnq3Tqrw4D6C50jlZwDShtgpHVTfyB700aQerJqgwvlUJZuvvnmDjtLKS9bbLFFzHjGwgsvHOvh4PUEICaddNJYNzvwwANjh6jlSrWgGFzI+vbpE/r0acwf9gwffvhh2HLLLWPqEOOfSEWiIUzBXnvttcMBBxwQ5ptvvni74IIL2ucY+O233+JBgeW8l9elKD0FnmEA2223XXyOgv/GG2/E50Bkn2U8t9JKK4UHH3wwfmZnKPz33HNPWHXVVWNgoSus784774xDM0q3gVQphjXQ0Et/9y233NK+DcXt4/0EMMA2kNb+97//vf15/sZ04OrsO6mrqwvLLLNMeOihh8J3330Xl6k2dPW7ss8T0U7jA3fYYYc4rhapnOy///5h8cUXj4+//vrr8Ne//jW+ln2BaHu5uTnYF1ZbbbU4dEiqdezbG220Ufv41rvvvjussMIKMSuLZTzHa0oV35fK2uGHH95+bN5ll11imQENM5alG69lOFkl6wbHeI7tvLd4PuOYz7r4fJS+r9IyK1Uj7e/FfZrGkKThw7mCYzUBA4ZPlBtuSuCA81TpsAeGGdH5O7zDLqRRISMNbpyxe87OymUzTzrppPa5ES688MJw0UUXhZdeeik+z3AGCi5DAWhcXXnllXF8FC699NLw9ttvxwYSjW8aYlTkkkcffTRGHJnIiBPqP//5z1jJIw3woIMOitH3559/PhxzzDGxQU5GQmdY/w8//BBmnHHGfEnn3n///Tg8gowN/jYajQQ8UmOfoRtENHmObfjb3/4Wt+2TTz6JFd899tgjPse2nnDCCeGLL76I78NTTz0VAy383fxNt912W1ze1Xcy3XTTxX/ZNtWejn7XG2+8Mdxwww3huuuui/szZeLQQw9tb6h8+eWX8be96aabwqyzzhrLUd++feNrCVox0zcnuCIaZJQ9bvPPP3++VOoZaPAzzItj/Nxzz50vrRxlhwm2KGstLS2x3KXgLsfqYmVwrLHGisu7wrGdY/zGG28cj92skwroW28NGabYEYIIJ598cqxoUmZp/FFeH3744fwVUvekRgzngLRPc0tZC6XBNG4bbrhh+33GitdCBqw0Mjz++ONhscUWG2r/L+77Hc0tkrKDCG6DDlLqaaUBaILHxcvCEnD+05/+FNfN8Ob02fzLY7JKywWxpdEp69PYEBob6vOHtYNxehSmYgGjAJGiT0CERjWNZ56jATX77LPH90055ZTxJMjraABx0qPhjK222io23ieYYIJ4W3rppWNhT+gVoqHFOCYKN412evYfe+yx+DksIwOBCV3o0ScroTP0FFPJHH/88fMlQ5BlUDw4pd4pGndUVvk7+Vx6otneVFGlQrzAAgvEv23llVeOfx8V0sknnzwGUdg+nuM1/A3ffPNNfB9YF/NH8HcTmEl/d1ffCdvEun788cd8iWpJud+VfYeGxq677hon0+L3Sye9lAkzzTTTxP2dfYd9mrGxZATRAGNODvan5ZZbLr4WBLaOOOKImJJnYEE9TbERz7EzIfibzjNd9f6vtdZasTFPWSODjAZXZ5P0VrJuzmUEsQkac+xm3ZRFjrud4bUESbhRvgkUcn4oHrul7kgTMK644orD1FGQriqRAmp0RpDlWAxGOMmceqvuTOiYAgvFYRCUj8MOOyx2DBaDA6WZCwSPzzzzzKE+p3jjeYdFqNZkLa0t7b0vtYQKFgW1tADREKKRw+zGm2++eUzrpveVylY5FPTU80/WA++loscJkwJbiaamptjAT0MbOJHSKCtmBpRDRZLXlqIXuXhwSidiGnU09AlmELzYYIMN4iyx5f42toVtotHP86yP4Rf8XQQZKr3KQ1ffCZ8x2WSTxe1Qz0B5Zt8rnuT4HdnHUpCI/bK4X1F55Lrmf/zjH8NCCy0UGONX3HcZR9jY2LOGT0kgaEZDiGArww+K+zWN+XSeqab3nwY954WOAhGoZt2pNzhN/Dv99NPH8wGZZMwYDoKG6VzN30DwggAi75t33nnD7bffHp+ThgfnCepXxVnp6XRIDaNFF1001mG4TCXIgpttttliowip55V9WhqTpSFGpYGFhDJz7rnnxjnmUnkpzVzgPucw1pOWFW9eyUu1KGttaRn8T+0FFzpCOuqgQYPCXnvtFec9oPLGpIlPPPFE/oqh0VtL7xCVQNJIJ5544vhaTpicPCtBo4qKXapIUsEjsMB6O0MAoJrADQ19tu/ss8+O2Q2M62USpGIGQsK2sE1kRTAkhKEU3LhPDwKV065U8p3wGVQeitfAVm2j4cG+V0zP43cksFCuR5R9lFmIyfK566674v7DkB8yghImDSIIxWRGXp5UPQnHwltvvTUe5wiedhQQ4HVk5VTS+0954byQAs5d6WjdbAtD+Uht5fjLkKT//ve/8TjOzPwMdUvz7DCLeEo3J2DOPEFkYTBUj/cSQJGGF40bAlr00CbF8z/BBzpE0qz2c801V3x96n199dVXY1DMLBqN6QgoEJhjCESa/4qMIOr3/Mtj5r666qqr4nC7FGAgs5R6GDfug2yiYoerx3zVsozAQt3g/3oKGkkEFggoEGgo7dWnIUzvEM8xZODf//53HCbBYypkZERQKWTIQ6XjU5dccslYkOl5ojJIZY6xTvT0dobof2rUVYKUdbIx+DfLsmH+Nk7g/E38LQzJYJsYAkF0lL+Jkz7PEXThe+hKJd8JAQ8q0qVDO1S7yFIg2n3++efH8bPss4ztYzkns1LsB8cff3ycw4PfuqNMmTnmmCOezIrzgEg9AcdGLjH87LPPhssvv7xs0JfeIY6paYhdKeZbIGBHxgCZPWR7ceysREfrZl0MbWIiX8ohgXPOFxzTCRIy8SqZbLyXCmg6DpM1wbE5fT7nDOYZkoYXGW/UXRIaPNS5OKeUU+x95fzCaxmqV2nnjdRbEVwgCEfWNdnXHMcJGJD5w788JlBHGSoG7KSeLgYXQl3tZS6UzrnAjbQgGt2MUaKHh54gxo0zFpbhESAVlSECCy64YHz9NttsEyOG9NgyKQqpozTIuU/aKY3/jnqyEnqQmCCREyjv3W+//eLkeKSidiaNhS+dDLF0zgVunMBZH9kKpLpynyESXGqGHjekuRX4u4888sjwl7/8JfYo8PcRBSXll5R2KppEOUuviVuqku/ks88+i4GHSielVG1gSA2ZCIwx57dlEiKyVMpl2xA42HfffeO8CuxLzN3AfsU6SrE+XH311VVl5UijG/PxEES74oor2ufLKc6LwJAEGvMcm8vheLn66qvHniiOrzvttNNQQyxKVbJuju2cz5jIkeM6cy+kXq7O/O53v4uNOco05ZuJKqeddtoOJxOTKkUgjsDZKaecEoNcNHhoBHV2GcrSceIMnajm+v5ST9HdCR2rQV2MOj037oOstdI2kVdxUa2qW27hOdvqGxrDvY8PubRcT57ll7Q8KmoEAdL4v9GNdFx6y0hhrTSFthzGVXH1C3rMOPmPKnyX4EoZkjSmoYHF0ASGLlRynX+pN6DOwjA56h3VThhHmaHXluyFWqmLScOLNgZDQ7laXLl6OM8zPxUT7XaEYUcMhSAwXK5sFJ8H9+lM7N+/fxyeWiyLlFEyijwvqRbQ6ZLULTX/79vqG/qEB59+JS4wuDBicZIl04EeqaWWWipfWr3REVzg0oN8Hlkblab/SlJvYnBBYyrqVGTIMJ+TM9JLkjpSDC5krW1tpjePRAQCuNzMvffe2+lly2oNFWrmqzjooIMMLEiSNIYhoMBwBwMLkqRK1S29wKwxc+GBp16OC3py5oIkSZIkSRo1hspcCHX8L8sfSpIkSZIkVSdjsmuuwCBJkiRJktQdGYGFzi6nJUmSJEmS1BkiC/ldSZIkSZKk6mV1YfB/dQ6LkCRJkiRJ3ZNlWX1+V5IkSZIkqXpxzoWWltb8oSRJkiRJUnWyltaWMHDQwPyhJEmSJElSdbKmQU2hpaUlfyhJkiRJklSdrKm5ObS1teUPJUmSJEmSqpO1traE5mYzFyRJkiRJUvd4tQhJkiRJkjRcsj59+4a+/frmDyVJkiRJkqqTNfZpDH0aG/OHkiRJkiRJ1cnqszrGRuQPJUmSJEmSqpNxnQivFiFJkiRJkrora21tC4YWJEmSNKJdfPHFYZ555om37bffPvz666/5M5Kk3iZrbWkJrW2t+UNJkiRp+H311VfhjjvuCNdcc014+eWXw1RTTRWOO+64/FlJUm+TNRNcaDG4UKq5uTm/J0mSpO4Yb7zxwqSTThrv77PPPuHTTz+NQQepJ2GfXWWVVcIDDzyQLxmCzJzOMnJee+218Kc//Wmo53kPt0odf/zxcT2V4rPYpmo+QxpRYuZCi8GFGEyg8C677LLhhRdeCOedd94wB5COUHgPOeSQ/NGwPv/883D00UeH77//Pl8y/FoG/25vvfVWGDBgQL6kttx9991hww03DB999FG+ZFjDW8F4/fXXQ//+/Wv2Oxid+F7ZJztLP00nn0r38yLWXe1JixPjRhttZKVS6kI1x3dew2t5j1RrCCqQrfDqq6+2P/7973/veUA9zs033xzr83vttVf7MJ+zzjorPPLII+GZZ54Jiy22WPvyYv3o8ccfD/PNN18Ye+yx8yUjH5918sknx6yhaoIS0oiQZVl9qKvLH9UICsIiiyzSXkjTrbMG/PDigEFj66qrrgrnnHNOuP/++8Pss8+eP9t9rPOYY44JSyyxRJhwwgnjAac7Yw5LG4Iff/xx7AFIJ+xaQqXhuuuuC0cddVSYbrrp8qVDa2pqCqeeemr45z//mS+pHr/P7373u3DmmWc6KWkJ9gsi7KPyZCZpxKjm+M5reC3vkaqR6hWlda3S2/rrr192+QorrNB+f6GFFgoLL7zwUM+nG40yGmTpNf/617/CpptuOlLrdNKIRN2bIMKTTz4ZNt988/ZhPtSxCJ4RZFhnnXXiMm477rhjfB9l7MUXX4xtgJGFbStX7lZcccXw5ptvxrJW+lx3OpWkStWtsOQCbc3NLeGhJ1+MC3766af47+hEcGHvvfcOZ5xxRphzzjnzpbWLgMF7771XdhzhtddeG3vYOYk2NDTE13KAIoBRTcOPA9See+4Ztt1227D88svnS0U2yF/+8peYckZkWENw4rjssss63c+GZ59if55pppnaT6CVoFwffvjh4dxzz21PkZUkjX6lx3Q6Cfbff//Y+1k8XpeeWzo715Rbh3UZ9TTsswceeGBYeuml4+O11lor1ve32mqruG+n/Zv6/cwzzzzUfk29h0xosnUuuOCCfGl5BIkpf5RFAnJd6devXyx7qZ2UtnO33XYbpu1EWTz99NPjuqtpe0iVYvhbkrW2tvS4Xt8PP/wwbLnlljH6RoYDEUT+Bgrx2muvHQ444IDY0ORGYU7zJ/z222/hxBNPjMt5L6/7+eef43MUuGOPPTZst9128TkikG+88UZ8DqQ8sYznVlpppfDggw92+b1R0O+5556w6qqrxsBCVzraPv6u5ZZbLm4D0X+2lQMFKeY8x+fQ+/D3v/+9fRv5O8jGAH8/B6CUDbLDDjvEIQlJ8W9jWAjBD6T1nnDCCUOt94knnmj//jv7norPUQGh92PXXXeN3wfbz9+RUsfYRjIQFlhggfheKiQ//PBDfO7rr78Of/3rX+NyvhsOkOk3JRuEnpDbb789Ph6TFPcXbuwv6Tvj5HbJJZfEkwjfMd9d8cZ3n5CyV/x9036Djn7PIpatueaa4c4774xlgn32oIMOat+uv/3tb+3p3Tx/9dVXx32x9Lfs7HeWuoPjY3EoDsO16G195ZVX4uPOzgmlx6Ri2ejsfZS3VL5YBxlcO++8c/vzCdtEdhHvL9445jKcLB3fkY7Fpa9jeenfKI1Miy66aKxEfvDBB/mSjqXMm3HGGSf+K/VE1KM4F2yyySaBDlgCCwTieEwdacUVV4zHZOos1NHTsRlXXnllLC8sT1kNZDnMOuusMTiQMiCK2Q7gNWk5t2K2RLpRpy5iOzknffnll/mS/6Esss0GFjQq9LhLUQ4cODCcdNJJ7XMjXHjhheGiiy4KL730Unz+22+/jY3N5557LjaoKdikMeHSSy8Nb7/9dnjooYdiA5qKIoU1efTRR8PBBx8cnn766XigIGWfxtA777wTG0u77757eP755+MwByqWZCR0hvXT2JtxxhnzJZ3raPuIQBLM4O/igNPRTMtPPfVUDKbwXrb7tttui8tvvPHGcMMNN8ShCvxtrOfQQw+NB79PPvkk9ibvscce8fvk7ySY8MUXX8T34ptvvolpjGm9VJb5DvguqKinAE76nlgXz2222WYxYJMq1WR3rLzyyrFxOdFEE8VlCb8Tvxnjw/g7OOjSE8LwCaLCVE7YdqK5NBAefvjh/J0hzD///PHA+eOPP+ZLej9+BzJ72F8YwvPYY4/F5aeddtowDXJOWOlkxO/IUBVOVAm/2xVXXBGDRpNMMknMLKjk98Rnn30WG1KcOFdbbbU47ptgQmtra9wmto2G3L///e/4elK36+vr4+/H/s4+ynhxPq+r31kaHjTYKR8c4+eee+64rLNzAvsfy9hH2SennnrqWDbQ1bkkIeD27LPPxjl3xh133HzpEPR08RmUSwJ39Fpxn6DgWGONlb9qaKnCyb/SqEQAv9IAFucE6lCcF2h8eXUI9XTs+wQNOFazPxfrVcUb54HUg8t7qM8WUe/muM8QIYZKpED3iMI6qfOn4Aa4z7KROTRDKspoBAxup9Qc0t2L44To6aSHhoYJlTQaPjSAeY5Gc5ofYcopp4y9tryORieTClIBBClMVMommGCCeCPFiQZvQu9PiibSo0TDmx4qGkl8DsvIQKCALrPMMjEroTNkB1BJHH/88fMlnetq+7pCz9oUU0wR30vwhfey/RzIyBiYYYYZ4t/G9/rLL7/EHufJJ588Nuz52/jO6KXjNQQUElLAaPSlbVpwwQVjBJTvgtd/9913YdCgQe3fEwEEnmOd9FinSR35PejhJrDAZyVsIxV0/n62n++MtEneDxoD3NguGsY0DIrfC9vF5xB4GlMQRKPBw/fE98nvs9NOO8UTFQ2dclhOUIloe2pcYeutt47fIevYYost4joIinX1exLMOeKII+JvSmChrq4uvo8TLOtkfWwbFc30edNOO23YeOON428522yzhWmmmSZG2dkfuvqdpe4iIEZgjH2P/Tnp7Ji7+uqrx2FtjKdtbGyM87ukAEElx2rKEcEIJgrmvDS82Ia+ffvmj6RRh8YJ9Sx6aJm0jt5b6hPlpKyd1Ni67777YgMrZSlKPR2ZuNSNirfURikik4FMnyIyfqgbUfdmqATzMYzIrDM6Iwlu0JGUcJ9lPWGYuXqHjLyFWgwukO5OBDCdoGhIUTBo5NCgocJH7+viiy8ebrrppqEaq0UU4tTTSuOT96ZUVtKcKkHvOQ1ePhs0ojgwFHv3y6E3ltdWqrvb1xl6uNkOvoeEv4XUKBqHfG9kdjBUgc+kAdnZFR6yLMvvDYvviUBGSiOmIsJkMjSE0dF7CS4QiEnfL/h+OVhToabBSnCEdc4777zDDIGgAcvfOSalBRMUZN+iIZ5QZlhWLoODfeD888+Pvw1DWjrC+lgH6+/q9+S5YnQcBKWoeBZ/awJRvL8zfGZXv7PUHQyjo7eJfZM00uIxuatjLscUjokERskeI/iGrt5H5g3nJwLdc801V760+wgGU+4IZEgjUtrH2WdpDLE/c+N4nyYJpb5AZhnBf4JqachdKdbFOaJ4jiFDh4CDgWL1JpxTUvuEOnS5rADOD0sttVT+aEiQjvkX1ltvvfiYMpTKXimyflJZ5JYmQS0uSxmhpciCS1eJIBBC510K+kmjwuAWQMeNxVpE2jW95BQ8KnsEIOhdIqW7HCpl9DaltOuJJ544vpYDAgWwEjRwaQCzDtCQJbBQmuZaisYyr63E8GxfZ6hIsx18Dwl/Cw1QesEYTkJ6PTfu08sw/fTT56+sDt/TGmusEdeTDrrc6NXrDMEOgkXp+wWVd7JXaKhyUKS3kdR81sdBvYhKN39ncdKp3o7GO/tWmssAfF+UjWLAISElju+PxnsxiFOK9bFe1t/V70lDjSt+EGRgSAvYf4mQE5xIOKF2NVEsAcCufmepOzie3XrrrXHfJAiQjjNdHXPZZylL7N8MGSODi+MkZaSrYzX7LuclAmRdZbhVgvMegeByZVsaHqnxD/bjdJynLkBmWcLr2P9JCS/toZXGNAQEUiOfbB7mripFlmgxCFcug4DMBrIXSssUQbxUFrlVMudCQlkla46J8SmvnK/KBQOlkSUb0ofTc2ZdoGFMYIGKW6pwFZFizThtnqNCSGSP3iMe04Chd5dGE0MeKh3PveSSS8aCTCWTCimNH8aS0/DqDA3m1JDvSqXbR+9uNWi4Exml15p0LLafhibLOSjS8OPzOPCwDQRsyk0GUwkyDfjOqZSwLnoMTznllNjo7QzbQoOVAyeBAirvpBJzcOU+gQa+FzCUIzVkE74TKt1jUsow2Rp838xLwXfGfsa8CQwPKr38J+nZzD9CWjg9T6V4H+sgAMWlWBmOQA9pV78nAQjWt8suu8Tfi/kXeB/7FeWTbeK34QTHPtcZsiS6+p2l7uL4xlwxzH9w+eWXxwBaV8dczh1//OMfY9ng9RwreT37aiXH6jnmmCMO86FsDM+4Wj6bcw6fxZwo0ohGHYk6TnFCuXJoFBGI4EoP5QIMNGoYTsR5ImW18br99tsv1kOk3qKSzIUiMgiYbyxlu5ElxI3ABMMjmPssZd8SEKBMdoXzS7mhDpQ9JkVPw/bIuBuTMns1+sVhEbWodM4Fbttvv31s0FAIb7nllpiqyjwJ9CgxPAIUJAo68wLw+m222SY2kmh4crlCepJI8+Y+E3TRACr2mJczyyyzxEkOiQTyXk6UjF0ndbszaf6D999/P18yBBMccUBJfxfb9+6773a6fVSO6dXlbycdtxobbLBBnHuC8casmwgrkUwyL/hs0h+JgDLBDI06IqvFHvFKUZnmoEjvBr8N4+75+/gOupKuPsGVOPhu6IH/85//HCsrNE7ZXradCdkYt1/MxKDyQupxpXNb9AZkavC9cFJiUk32fxrnVPxKMxOIljPUhch32ucoG6nyx/7NfB2sg0AYwTvWUenvyfwjPE+gA/xuNMBYHydI3tPZUAwwnr2r31kaHsx7QEOfCYDpLerqmMvxkjJA+eJ5jttcFYLjY2fvK+KYTbmh7BXLXDUI+HLc5yo/Y9IxTrWJYzrBA47X5RosBCjoLEh1HAIRBLcraSxJPUUlmQsJw34pA3TekM1AQIIsoZQpRJ2LQDYBge6cIxLqwtTpuboc7ZTrr78+3qjD0RnKc+WCgtKIVrfUIvO0tYW68OhTL8YFXaUv1zIKDZUwggA0SmsB6bj0lpVr9Gn40YO47777xokNiQhLUmdoEHHlH67gMKomuKLXisolATjTUyWpZ+G8QeOfDhCuTkYmM50vCROWkokAggYpC4hjf+lrkSY47SpbKCEwzlwN5c5ZfAYBCq4E19k5hsAFdWUC5WQGG/DTiETHS1K37OLztdXV1YcHHns2LjC4MGJRmIkgkpZUnNhFw490YSaWIsuCxkJxojZJKsfggiRJ0ohTDC5kWR0Tt/XJH2pEoyJ52GGHhXvvvbfLuQdUHYZwcBlM0oUNLEiqBIFnUkVHVWAB9BB1NMO+JElSb1G36rKLtWVZfbjj/kfjgp6cuSBJkiRJkkaNoTIXWttaQ3NrS/5QkiRJkiSpOllTU3NobmrKH0qSJEmSJFUny/+VJEmSJEnqliwELkTpZHiSJEmSJKl7soEDB4WmZodFSJIkSZKk7skG/DYgDBw4MH8oSZIkSZJUnayppSm0tLbmDyVJkiRJkqqT9enTJzQ2NuYPJUmSJEmSqpNNOOGEIcu8aIQkSZIkSeqerLW1NTQ0NOQPJUmSJEmSqpO1tDSHujovRSlJkiRJkron69O3bxg4aFD+UJIkSZIkqTpZS3NrqK+vzx9KkiRJkiRVJw6L6NevX/5QkiRJkiSpOllWXx+am5vyh5IkSZIkSdWJ16BsamqODyRJkiRJkqqVtbY2h5a21vyhJEmSJElSdbK2tvyeJEmSJElSN2QNDY2hPoujIyRJkiRJuV9//TVsv/324YEHHsiX/M9XX30Vn+PfIh6vssoqYZ555ok37qfXvPbaa+H444+P6yu3zlK8lvdUKm3vxRdfnC+RRp2sra0t1GW9/1KUFF4KGgVOGtMdcsghXZ50OjuZDhgwILz11luhpaUlXyJJktS7EBBYd911wzPPPBP22muv9mABN+pIV199dXxuxRVXbF+e6leLLrpoePLJJ+ON+6letemmm4Z//etfcX3cFllkkaqCB10Ze+yxw8knnxzuuOOOEbpeqRLZzz//Epqd0FFSFV599dWwzz77hI8//jhfIknqSVJDp9hYKr394Q9/iD2uNH466qAhAF3uvaW3StYl1ZpJJ5003HTTTWGdddYJhx12WFxG/WfXXXcN+++/f3juuefC5ptvHl5++eVw1llnxdftuOOO8XVPPfVUWGyxxYbqpFlwwQXDP/7xj/geXs9tv/32y5+tXkflj2DHm2++GQMZpc+V6zSSRpS6uWeboa2+vk944dU344Kffvop/tvbUJAuu+yycM4558SInjQmI3Nhpplmaj8BlkPFb8899wzbbrttWH755fOlkqTejJ7a3XffPRx99NFhzjnnjOcLHHfccfFfemVPP/300K9fv1iv4jUd6WpdUq2j5596EBmb5RBowHjjjRczBcgYICDBvk85WWqppeLzjz76aNhll13CkUceGTMdiopliTJy88035890rLT8UWc78MADw2677TZMmUzbwrptA2lkYP9PssbGPoP/vy5/WDsoeET/iLDx7xtvvBGXEyQoRrwpMBtttFEs/AzxuPPOO8Oyyy47zPuKfv755/CXv/wlHHHEEfFg8dtvv4UTTzwxzDfffPF9BxxwQHwN+Lz1118/RihXXXXV8OWXX1b0GdLIxP5POTj88MPb90VOWl9//XV8vrm5OZ506CHiuR122CF8+umn8blSH374Ydhyyy3j63j9NddcE8tSqYceeiisttpq4YUXXojljXJH+ZNqFfsp+/S5556bLxnixRdfjL1HKXW1s3NA6b5+9913hxVWWCG88sor8XFH5yrwnuKYW27FHqPie1daaaXw4IMPtpc9KoHFoUul575HHnkkvid9btqezra3eL7E559/Ht/b1RApjRlSeaHHk/NCQiCaG9j/3nvvvXDffffFc8x//vOfuBzss+yPrIPeWO53ti6pJ6Chzr6eMg3AvzymvkQnzcwzzxyOOeaYMNVUU8XAAmjMEyTgfMKN+/37968oc4FlZEKkW/qs4jLaJkUEDTiH0U4pRbYp5c7AgkaFGFzo26dv/rA2vPPOO+Gggw4Ke+yxR3j++efDZpttFo499tj2yl5H3n///VggzzjjjNgAotJU+r5BgwbFwj3uuOPGzyDyd+mll4a33347Np6osFHhohAnnEhXXnnlOK7qk08+ie8/88wz42esueaa4aSTTmqv8EmjEvsdkXL2W+Y/uOCCC2Lj5MYbbww33HBDuO6668LTTz8dFl544XDooYcOs58OHDgw7r8EKNifL7zwwnDRRReFl156KX/FEDRMeB23+eefP18q9QyUkW+++Sbep3zcdtttoampKT5GV+eA5KOPPgqnnXZaOPjgg8Pcc8/d5bmKTMA+ffqE66+/Po65pRwm6b306vJeKqYEOF5//fX8FR3jNSeccEJ8D+9lHUcddVT735iUbm8R3wN/N+dNjdlSEGzvvfcOt99+ewwcTD/99PmzQ6NxQiOFoAG9ueutt15cToCKADb7OQ0xAmWsp7N1ST0FDfY0RwL4l8ennHJKLDsEcWnwp2Ay5WHKKaeM+38KBnB/iimmiMMo6PApzrnAekaEJZZYItb/inU97rOM56RRIcvqs9DQ2Jg/rA2PPfZYLJw06BsaGmJhJcOAilJn+vbtGytMRN/pidpuu+1isGGsscaKz/PcFVdcEQMERAkJLGCrrbaKr5tgggnibemll44BhYTGFEGEiSaaKEYwabARHayvr4/pTj/++GP45Zdf8ldLo85aa60VxhlnnLjfMoSBE9hnn30WT3Rk28wwwwxxP2fMHftoaZYN+zCBNho6X3zxRSx37N+zzz57/ooQ51Ugy4fUPwML6mnoSSJd76677oqPaQBRDoqN7a7OASBgQOBg4403jucmdHWu4j7nH84dpdJ7eQ/vpeK3zDLLhHvuuSd/RccIGLL9vIf3kpmw7777xvtJue0tooLL8WLxxRfPl2hMRQ8rgTHOG6nXtTP01LLvsB+m9GvKC8EG1gUCapWsS+oJGBqaggQEnsk84P4ll1wSyw3ILGPSRpZTRqh3bbHFFvE4z437Sy65ZHuWWRHniiuvvDJ/1H2UR853BC4S7rOsdKiENLJkAwcOir35tYQeJQrrAgssEAskEXImJfn222/zV5Q39dRTxwoilTYqaRtssEF49913YwMKFHhSg4oVMNB7S+MppcSSlVCUFS7VybqY2IWgAq8lVYnggjS6EUSg7DAkghtBh4QGDj1OpfsqZYF9nwYY+zINDfbvVGZA2mtjjQUgpUqx726yySYxuECDm2FtBM9mnHHG/BVdnwNI6yYTjswAUlHr6oYMJezqXNXa2hrPH8VzSMJ7KZfpfMQ6J5988hjkS2iosV5uqccMH3zwQXxf2g7KPoEGAiPoaHsTAo3nn39+rAxPNtlk+VKNqZj/gOAA+1lXQ2TovCEglobWJGQzFHtzzeZUb0PZoIwQNCDzIB2buVEmCDSUDjsovVrEXHPNFYNyKVBRvBXnIaEsFddPuSqdmPHf//53/uqh0RGUrhLBcDqy8dJcJ9KokA0cMGBwJae2rhZBZXCNNdaIqdnFgkdvUmeoIE488cTh7LPPjmNZGYPOJEIpVZSeHtK6SVUiHZRMBhphTL7C+5544on4OWlylnKoSJJSyxAJXksEM1XopNGJyDdlh0YHt2I2DZk8BBbI7iliKAXBRU5kpLGyP1977bWxLCRMDkTD67zzzusye0iqRYxxJdh27733xswAMtFSg7uScwBp3bfeemt8DYEH3oOuzlUMX5hkkklidlAp3ku5TOvifERgofhatiOtk8B5QkYS7+M9oBx/99137evqaHsTAoact5yoVQkNGxpANEToYf3hhx/yZ4ZG7ydDT8lSKM4fQk8t+yuBLjJDHdut3iZl7HAjM7Q45IEgbbmgW7paBDfuI81NUrzx3jRPDjjep3Vzq2TOhYSMIeYZYpgT5Zrzm+VRo1JWV4OTOTIZEOO/KbhUmuiFIRL+/fffxwJMmjYZCVSY7r///pgGDlJdKYD8S09RsfcVLKNCt/POO8eGFJVM1k9v1oQTThifY8jEww8/nL9jWLyW3iYqgFQM2UYzFzS6EJ0miEBFkCuh0PNK8IwTFT2T9HBSThhvx37LSayIfZjAAgEFykJpmQGBijnmmKPsHCZST0CDh4ACs3RPO+20sfcoqfQcQOWMeQ2effbZcPnll8eGfWfnKuZtIM117bXXHiaoB9JjqSASsKaMMncC5zOCFV3hc0mt5T18LusoTuiKctsLjhX8fVSOU9aEBPYZel8ZIsE+3BECDMyrQEdOsUFE46s4VELqTYpBAepXZKqlx2QVcMzn32L2T2nmAkrnYig+BwIClQR+mUunXFkja4hLZKZhfgQLi+VUGtmy+sGVi98G/m9iq1pAQ4bCRXScMd5bb711LLwUkllnnTWe+Bgju9BCC8WKUxrPOu+888YKFpUm7hP547Is9N4UMaEKE3DRGCOr4U9/+lOcxIjUVu4zvKLYo1S0+uqrx/cvt9xycRI8Juyi0UbWhDSq0Whhn6SnlDF1O+20U+yRZUjQhhtuGMdbs18//vjjMXpd2oPKY644ccstt8SyxkzyzONQbhw26wJZO6mhIvUUVN5I3V533XWHalRThio9B1ApPP744+PcPQSnOzpXEaRgskaC4FTyWEbPFRl1BPPo8Z1lllnipIz0MPG59PYy6Srnrq7wuayf9/C5VHSZ3JFzU1Hp9oLjA41APl8qh06ariZ/o1HDuSfNsSD1dhzryc7hOEtwgKAA892QUZCydrjP8TUpl7lAh2gxMFF8bniQNUHgmfYJ5wbmPeHG+YmgNc+VZlZII0PdrLPN1jbuuOOFZ595Oi6gsSypthGZZgJHUlNNbZZqS0fl03Kr3oTeUIJn6br+Um9F1gKXkiSIQBYn2QBkKhBouOqqq+L+n47voPOSrFKCb2m+gxSc4LUEfbnSCvcrKUPp9eUyFQhWE7TmakR8bkdDINL2EeSm89VzkEYkOjiTugUXWqitubklvPjC83GBwQWp9tlIkWqXwQVJGrMRfCO4QECBAALIAD3ggAPi/VIELQhASD3RUMGFmWaaoa2tpSm898HHcYHBBan22UiRJEmSNLoNFVyYcbop2xg//f5HQyZFNLggSZIkSZK6UgwuZH369A3jjz9+/lCSJEmSJKk6WWNjQ2hsHPYyWZIkSZIkSZXIGhsaQ319lj+UJEmSJEmqTlbfUB9aWlrzh5IkSZIkSdWJKQvNzYPiA0mSJEmSpGplLc3NoXnwTZIkSZIkqTuyluamUFdXlz+UJEmSJEmqTtbS0hIa6uvzh5IkSZIkSdXJWltbQ73BBUmSJEmS1E1ZltWFlhbnXJAkSZIkSd0TMxfaWtvyh5IkSZIkSdXJsro6/i9/KEmSJEmSVJ0shLbQ2tKSP5QkSZIkSapOzFlobnbOBUmSJEmS1D1Zn759Q2NjY/5QkiRJkiSpOtk444wTxh1v3PyhJEmSJElSdbKx+vUL44w9dv5QkiRJY6pff/01bL/99mGeeeaJ//J4RPjqq6/CKqusEtfLvzyWJPUuWV2Whbo6rxYhSZI0pnvqqafCVFNNFV5++eX4L49HhNNPPz1sttlmcb38y2NJUu+Shba20NbSmj+UJEnSmGqyySYLP/30U8xYYOgsj4cX62KdSyyxRHw888wzh08//XSEZUVIkmpDVp/Vh9a2tvxh7WtpaQlvvfVWGDBgQHx8yCGHhIsvvjjeJ8WOk1VXStchadR76KGHwrLLLhv+8Y9/xDLZHT///HM4/vjjw4cffpgvGfk6Oga9/vrroX///h5XJPVoc845ZzjzzDPD2GOPHQ4++OD4eHixLtY5ItYlSapdWVtba2gaNCh/WBtee+21sMgii8RxecUblfiPP/447LPPPuHVV1/NX/0///znP8Opp54ampqa8iXldbYOqaegPBTLx3zzzRf22muvigJs5aRxtg888EC+ZOT54IMPwvXXXx8uvPDC8MILL4Qnn3wyf6ZyXEL3jDPOCFNMMUWYbrrpyh43tttuuxEeeOjo+DH77LOH3/3ud7EC3daDAraSxkzpmM+xkmMnx9AkHU/XX3/9oY6p5W4rrLBC+/2FFlooLLzwwkM9X3rbdNNN47nqmWeeCXvuuafZC5LUi2QDBgwMv/72W/6wdkw44YThmmuuiWPz0u24444L008/fbj99tvjCazUn//853Daaad1eWnNztYh9STrrLNOe/l44okn4vhYgg61XlmbYYYZYiN8ttlmi/8uueSS+TOVe/rpp2PggLG7ad6Y4nGD52nwn3TSSWHgwIHx+RGho+MH27DBBhuEN998M7z00kv5UkmqTWQTXHLJJfF4udtuu4XHH388f2YIhjBceeWV7eeY0ttZZ50VAwm33XZbuO++++L9O++8M2alcZ/ni68nKMuNY3R67znnnBO3Q5LUO2QDBw6IPYA9BUMfNtpoo6Ei7AmpyTSswL+cxGh8ESnfcMMNw3vvvRefK64jRe7//ve/t7+W3s7PP/88vpbv5rLLLmvvEd1hhx263TMsjUxjjTVWWHfddeO41l9++aXTfZd9f+211w77779/WHzxxcOtt94alltuudiTRI8S5YfXUE7SjN6lmQ1ff/11LGOsm+ENhx9+ePvM4rwm3UdpuSUosOWWW7a/95FHHonL6fGncsoynqNMvvHGG/G5Il5HhZYZxzuqmPbr1y/+be+//34cPsE20Qu36667hlVXXTVuE39vKvfF7UBxG/kOqRDzuZ0dgwhuUGEm+KDRj9+I3+7cc8/Nlwzx4osvhgUXXLB9SF1nZaXc7035SO9Nn8H70r7CsuL+Q/DsX//611DDf1hHeg83Z8/X6JbqSMOLY/J+++0XO4TKHSclSb1X1tLSGurrs/xh7/Lll1+GCy64IPZgzj333LEHs6Px0MyGzGtpXKSGC2688cZwww03hOuuuy6uh4bDoYceWvM9wxrz/Pbbb+Guu+4Kffr0iYGGrvZdygfDCW666abwhz/8ITz44IPtvU1UCjtDGaG8DBo0KGZM3HLLLeGTTz7Jn+3ct99+G/bdd9+YSvv888+Ho446Kpx88snx/QQC+HyGOzBcgob/scceG4MDRd9//3187RxzzJEvGRbfB71pNOwmmGCCuIzK88orrxyuvvrq+DwBkT322CN+1kEHHRROOOGE8MUXX8RMB44XBBx4juEbF110UUUZCfPPP38cMvHjjz/mSzS63XHHHeGbb76J99PxvTh8bniP82SzsK/RO8v7GarDPr788svHffzSSy+NwYX7778/f8cQBOd4D4GrtI9KowPHxplmmil/NDTKAcHiFDirBHMrcBzfdttt2wNoXh1Cknq/LNSF0LdP3/xh7aDxwLi84enVWWmllWIljx7MnXfeOVYuO8o6IFuB11LBo0HBiZbGx9133x17OknjZj1sE73C5XpTpVHt5ptvbi8jiy66aGwI00Cur6/vct+dZpppYo/s5JNPHhoaGuKyShEgIKiw9dZbx9nEKTeVDm2gckoAZJNNNomfu9hii4WJJ544vP3226Fv376x8cdrKH+US4INBEuKCIwQAJhkkknyJUMUjxt8H6yHSnH6+2j4r7nmmmGiiSaKQ0hI+eXYwve1wAILxO+J4wSPxx133PDOO+/EYAPro+HJMIuu8F0QxByRQzHUffzO4403Xgy8gXMAZYCAM0bGcT7t46yHfW/WWWcNm2++ecxoKWYKjj/++Pk9afShbkW5IJhbDoExsrw4rqXjKzey3DpCZg+vPeWUU4YaFiFJ6t0yhio3Dq4E1ZrSOReo/E066aT5s9Wj0YJqZnKnkUNFkMZTQiOHlD97JVULqAymMsKNHlJ6USvZd5kjgEZ0d7S2tsbGU3d6W9muV155JSy11FKxgkpwgYrrRx99FKaeeuoYTHjsscfCMsssE+cwePfdd4fZzpReXrq8eNwg0EJwgh5kgiHIsv9lafFeJpJkiATbQZCBbQANwiOOOCI2TGkUMryCDI9Kvi8CF3z/prjXBubgIZBFcIEMGIbdECSaccYZ4/OVlJUffvhhqEYVQb3OsD6CFMWg3ZRTThm+++67mO1DTzCNueE5p0kjCplWHIOLk9QSeGWIHXbccceYmcMcOcV6Gcfqcti/yQIlmED2jiRpzJENrlcNbmTkj3qx1ItIha9SNL6oHNKDldDLRYUzBSukWjSy913WTaOtO5dd5L1MhkjDPlVSuW2zzTaxnJLFcPbZZ8fK7i677BKOPvro9pT2JDXyO7uEJa8hcEEgJM2hUsQQB9J2uXGfyjOBGbBeGoH0zDFchAr1tddeG7M1ukIgg+/fhmPtYH4Fggf33ntvuOeee2L2Cr8RKikrBNGKjaqOengT1kfZIMiQfPbZZzFokfZdAl2eR1QLCABw/GM4XAqgkclJxk+lON4xOST/pjkXzjvvvPa5STCi5nSQJNWujIpVb71o2sMPPxwbFVTyGDPNyZKeyEpREaQ38/zzz4+XzqOiyNhclnPylWrV8Oy79NKCRj6NrGeffTY2tmnsk3EAMgS49CXzENAo4z1kGySTTTZZvGQjWQd8NmPNaVxhlllmie9hjDvP0Rjv379/+L//+7+Yhk6mAP/S+OooU4D10zBjUsmOpM+lZ5qhH6XoXSNAQkWYv48gAsMtwN9NYIGAAs9VkrGQ8F0QxLThWDv4PQgoHHnkkWHaaacNc801V/7MyDnOM96c4BQBCdbHekktZxJV9guuKMK+y7ZItYCgABmiKYDGsNLhQRngmEoGQwpYdJXxI0nq+TKGRPTWxAUaQPR8MgnRW2+9FSPp1WQugLRsrjSx8cYbxzHZXKqJyecYjy3Vsmr3XRrZTHbIJIcMCaBBzjXIDzvssDhXAQ0l5mkAQcndd989roshAzSailkMjDHnEpFbbbVVzFIgQMFwARDkO/XUU2N6Otu12mqrxbkTSBufd955Y5ll/Dv3Sbs98MADY6CjiLJNWvvrr7+eLxmiOOcC66ZBx0SNpe8Hx4UVV1wxXkGCbSSgQU8dfwd/F9/DLbfcEv925qZYa6214t/aFcbb03h1PH1tYQ4OJqzjiipkFhSN6OM8+zqXReYKJaxviy22iEEzhuCwf+y9995xn2IYkNRbcU5Jl7rk5pwLktT71a249MJtg1sK4d6HnooL0hi7no7LfFGRZKygpBGPHn2yC1J6OemvBPFOPPHE9mUjEwELPpNABZXYWsCYfuZ4IChDZockSZLUmxWH0WX19Q2hrtfmLkgaWc4555xw7rnnxp5+JkJkwkMyAEZFYAE03un55XMZ+jC6sQ0MoyDTgawLSZIkaUwSrxYxqhoDknoPUr2ZoIvhBaSaM6SC9PJRhdR20svff//99qs8jE4Mq+BqADvssIPHVEmSJI1xhgyLGOzeh5+OC3rLsAhJkiRJkjTyDDUsYlDToNDc0vHl3CRJkiRJkjqTtba0hrbW3noxSkmSJEmSNLJlrS0tobmpKX8oSZIkSZJUnSyQtVADM61LkiRJkqSeKeNa9Y6KkCRJkiRJ3RUndGxrbc0fSpIkSZIkVSdrJW3Ba7JLkiRJkqRuyhoaGkJ9fX3+UJIkSZIkqTpZiEkLZi5IkiRJkqTuyQYNagpNzV6KUpIkSZIkdU9GYKG5uSV/KEmSJEmSVJ2sT9++zucoSZIkSZK6LWuor3dCR0mSJEmS1G1ZltWFhgaDC5IkSZIkqXti5kJjY2P+UJIkSZIkqTpZn8bGQIBBkiRJkiSpO7KGhob8riRJkiRJUvUyrhTR2uKlKCVJkiRJUvdkdV6HUpIkSZIkDYc4oaNXi5AkSZIkSd2VtYa2UG9wQZIkSZIkdVNWX98Q2tra4k2SJEmSJKkaxBOyAQMGhNbBD7799pshSyVJkiRJkir0/XffhmzQoKbQ1tIa3nzttXyxJEmSJElSZd59642QcRnKgQMHhQfuvzdfLEmSJEmSVJmnn3gk/D+LJMIZVmv4rQAAAABJRU5ErkJggg==;" vertex="1" parent="1">
          <mxGeometry x="-50" y="90" width="1047" height="686" as="geometry" />
        </mxCell>
        <mxCell id="G-mqxwKbMEY0-rQwgw5R-2" value="" style="rounded=0;whiteSpace=wrap;html=1;" vertex="1" parent="1">
          <mxGeometry x="-50" y="160" width="1040" height="600" as="geometry" />
        </mxCell>
        <mxCell id="G-mqxwKbMEY0-rQwgw5R-3" value="" style="rounded=1;whiteSpace=wrap;html=1;" vertex="1" parent="1">
          <mxGeometry x="-50" y="90" width="980" height="70" as="geometry" />
        </mxCell>
        <mxCell id="G-mqxwKbMEY0-rQwgw5R-4" value="" style="shape=image;verticalLabelPosition=bottom;labelBackgroundColor=default;verticalAlign=top;aspect=fixed;imageAspect=0;image=data:image/png,iVBORw0KGgoAAAANSUhEUgAAAg8AAAAKCAYAAAAzd704AAAAAXNSR0IArs4c6QAAAARnQU1BAACxjwv8YQUAAAAJcEhZcwAADsMAAA7DAcdvqGQAAACtSURBVHhe7ds9i4QwEAbg2dPGwk7w//88a0ELP+7IkmVNIVyuOtjnaYZMirQvM+Sxbdt3APBvnOcZ+77HsiwxDEPultJ90rbts1799S6ZpinGccynN+9570p4AACqfOUKAPArwgMAUKVYW6zrGvM8x3EcuQMAfJqmaaLv++i6LndKxeRBcAAAUhZImeCOtQUAUKUID2lEkUYVAMDneq0t7viqCQBUsbYAACpE/ACtIXLdOhPJ0QAAAABJRU5ErkJggg==;rotation=90;" vertex="1" parent="1">
          <mxGeometry x="700" y="455" width="527" height="10" as="geometry" />
        </mxCell>
        <mxCell id="G-mqxwKbMEY0-rQwgw5R-6" value="" style="endArrow=none;dashed=1;html=1;dashPattern=1 3;strokeWidth=2;rounded=0;exitX=0.846;exitY=0.183;exitDx=0;exitDy=0;exitPerimeter=0;" edge="1" parent="1">
          <mxGeometry width="50" height="50" relative="1" as="geometry">
            <mxPoint x="-9.999999999999886" y="240" as="sourcePoint" />
            <mxPoint x="790" y="240" as="targetPoint" />
          </mxGeometry>
        </mxCell>
        <mxCell id="G-mqxwKbMEY0-rQwgw5R-7" value="" style="endArrow=none;dashed=1;html=1;dashPattern=1 3;strokeWidth=2;rounded=0;exitX=0.846;exitY=0.183;exitDx=0;exitDy=0;exitPerimeter=0;" edge="1" parent="1">
          <mxGeometry width="50" height="50" relative="1" as="geometry">
            <mxPoint x="-9.999999999999886" y="240" as="sourcePoint" />
            <mxPoint x="790" y="240" as="targetPoint" />
          </mxGeometry>
        </mxCell>
        <mxCell id="G-mqxwKbMEY0-rQwgw5R-8" value="" style="endArrow=none;dashed=1;html=1;dashPattern=1 3;strokeWidth=2;rounded=0;exitX=0.846;exitY=0.183;exitDx=0;exitDy=0;exitPerimeter=0;" edge="1" parent="1">
          <mxGeometry width="50" height="50" relative="1" as="geometry">
            <mxPoint x="-10" y="330" as="sourcePoint" />
            <mxPoint x="790" y="330" as="targetPoint" />
          </mxGeometry>
        </mxCell>
        <mxCell id="G-mqxwKbMEY0-rQwgw5R-9" value="" style="endArrow=none;dashed=1;html=1;dashPattern=1 3;strokeWidth=2;rounded=0;exitX=0.846;exitY=0.183;exitDx=0;exitDy=0;exitPerimeter=0;" edge="1" parent="1">
          <mxGeometry width="50" height="50" relative="1" as="geometry">
            <mxPoint y="432.16999999999996" as="sourcePoint" />
            <mxPoint x="800" y="432.16999999999996" as="targetPoint" />
          </mxGeometry>
        </mxCell>
        <mxCell id="G-mqxwKbMEY0-rQwgw5R-10" value="" style="endArrow=none;dashed=1;html=1;dashPattern=1 3;strokeWidth=2;rounded=0;exitX=0.846;exitY=0.183;exitDx=0;exitDy=0;exitPerimeter=0;" edge="1" parent="1">
          <mxGeometry width="50" height="50" relative="1" as="geometry">
            <mxPoint y="550" as="sourcePoint" />
            <mxPoint x="800" y="550" as="targetPoint" />
          </mxGeometry>
        </mxCell>
        <mxCell id="G-mqxwKbMEY0-rQwgw5R-11" value="" style="endArrow=none;dashed=1;html=1;dashPattern=1 3;strokeWidth=2;rounded=0;exitX=0.846;exitY=0.183;exitDx=0;exitDy=0;exitPerimeter=0;" edge="1" parent="1">
          <mxGeometry width="50" height="50" relative="1" as="geometry">
            <mxPoint x="20" y="670" as="sourcePoint" />
            <mxPoint x="820" y="670" as="targetPoint" />
          </mxGeometry>
        </mxCell>
        <mxCell id="G-mqxwKbMEY0-rQwgw5R-13" value="&lt;font style=&quot;font-size: 200px;&quot;&gt;Content Below But Blurred&lt;/font&gt;" style="text;strokeColor=none;align=center;fillColor=none;html=1;verticalAlign=middle;whiteSpace=wrap;rounded=0;" vertex="1" parent="1">
          <mxGeometry x="-1000" y="900" width="2920" height="30" as="geometry" />
        </mxCell>
      </root>
    </mxGraphModel>
  </diagram>
</mxfile>
